<svg width="109" height="109" viewBox="0 0 109 109" fill="none" xmlns="http://www.w3.org/2000/svg">
<path d="M54.0591 107.829C83.7554 107.829 107.829 83.7554 107.829 54.0591C107.829 24.3627 83.7554 0.289062 54.0591 0.289062C24.3627 0.289062 0.289062 24.3627 0.289062 54.0591C0.289062 83.7554 24.3627 107.829 54.0591 107.829Z" fill="#FFFEF8" stroke="#0C1E46" stroke-width="0.579062" stroke-miterlimit="10"/>
<path d="M65.002 41.4857L54.0206 72.8847L43.0391 41.4857L54.0206 10.082L65.002 41.4857Z" stroke="#0C1E46" stroke-width="0.579062" stroke-miterlimit="10"/>
<path d="M81.2208 58.8097L55.9609 74.7053L65.8084 46.5315L91.0682 30.6406L81.2208 58.8097Z" stroke="#0C1E46" stroke-width="0.579062" stroke-miterlimit="10"/>
<path d="M78.3805 78.7038L57.7812 76.4119L75.3181 65.3682L95.9126 67.6554L78.3805 78.7038Z" stroke="#0C1E46" stroke-width="0.579062" stroke-miterlimit="10"/>
<path d="M67.8301 87.9529L58.7578 78.9141L71.4858 80.3257L80.5629 89.3644L67.8301 87.9529Z" stroke="#0C1E46" stroke-width="0.579062" stroke-miterlimit="10"/>
<path d="M26.9069 58.8097L52.1667 74.7053L42.3145 46.5315L17.0547 30.6406L26.9069 58.8097Z" stroke="#0C1E46" stroke-width="0.579062" stroke-miterlimit="10"/>
<path d="M29.74 78.7038L50.3345 76.4119L32.8024 65.3682L12.2031 67.6554L29.74 78.7038Z" stroke="#0C1E46" stroke-width="0.579062" stroke-miterlimit="10"/>
<path d="M40.2797 87.9529L49.3567 78.9141L36.624 80.3257L27.5469 89.3644L40.2797 87.9529Z" stroke="#0C1E46" stroke-width="0.579062" stroke-miterlimit="10"/>
<mask id="path-9-inside-1_2049_6290" fill="white">
<path d="M88.9508 58.7383V87.6604L88.9397 87.6715C84.4193 92.3608 78.9975 96.0939 73.0029 98.6409C67.0082 101.188 60.5615 102.5 54.0482 102.499C47.5348 102.498 41.0886 101.183 35.0948 98.6342C29.1011 96.0851 23.6828 92.3535 19.1641 87.6626V60.589L22.0936 64.5672V85.862L23.0634 85.8365L24.0098 69.3218L25.9817 81.9872L27.4097 80.0498L28.8556 81.9538L29.8576 69.3384L31.7782 85.7632C31.7809 85.7861 31.7919 85.8073 31.8092 85.8226C31.8264 85.838 31.8487 85.8465 31.8718 85.8465H32.757V82.957L33.7001 81.9538V80.0576L34.6954 79.0377V63.5583L35.6385 60.6334L36.6328 53.8669L37.577 60.6678L38.5879 63.5662V79.0634L39.5233 80.0321V81.9706L40.5009 82.9393V85.8389H41.4618V81.0018L42.405 80.0496V67.4344L43.8841 61.6366L45.3467 67.4511V80.0665L46.3065 81.0187V85.8556H47.2763V82.9057L47.2929 72.28L48.7466 70.3248L50.1746 72.28L50.1913 85.8463H51.1435V51.0509L51.1513 51.0143L51.1724 50.9831C51.2989 51.0113 51.4305 51.0074 51.5551 50.9718C51.6798 50.9361 51.7935 50.8698 51.886 50.7789C51.9784 50.688 52.0466 50.5755 52.0844 50.4514C52.1222 50.3274 52.1283 50.1959 52.1022 50.0689C52.1202 50.0518 52.1441 50.0423 52.1689 50.0422H53.8806V45.1631H54.2554V50.0289H55.9626C55.9568 50.1808 55.9876 50.3318 56.0522 50.4694C56.1168 50.607 56.2135 50.7271 56.334 50.8196C56.5099 50.9362 56.7221 50.9852 56.9313 50.9575C56.9482 50.9757 56.9577 50.9994 56.9579 51.0242V85.8341H57.9278V65.9849C57.9278 65.8382 57.9687 65.6945 58.046 65.57C58.1233 65.4454 58.2339 65.3449 58.3652 65.2797L61.8037 63.5751L65.2421 65.2797C65.3735 65.3449 65.4841 65.4454 65.5614 65.57C65.6387 65.6945 65.6796 65.8382 65.6796 65.9849V85.8465H66.6495V63.5751L70.5527 62.7947C70.6669 62.7719 70.7847 62.7747 70.8977 62.8029C71.0107 62.8311 71.116 62.8841 71.2061 62.9579C71.2961 63.0317 71.3686 63.1246 71.4185 63.2299C71.4683 63.3351 71.4941 63.4501 71.4941 63.5666V85.8465H72.4639V75.5132C72.4639 75.4095 72.4844 75.3067 72.5241 75.2109C72.5639 75.115 72.6221 75.028 72.6955 74.9547L73.0261 74.6245C73.4682 74.1824 73.419 74.2053 74.0392 74.2053H76.3276L78.2783 68.403L80.2158 74.2175H82.851C82.9371 74.2175 83.0223 74.2348 83.1016 74.2682C83.1809 74.3017 83.2527 74.3507 83.3127 74.4123L83.8513 74.9653C83.9976 75.1155 84.0794 75.3169 84.0794 75.5266V85.8341H85.0359V61.6322L88.9508 58.7383Z"/>
</mask>
<path d="M88.9508 58.7383V87.6604L88.9397 87.6715C84.4193 92.3608 78.9975 96.0939 73.0029 98.6409C67.0082 101.188 60.5615 102.5 54.0482 102.499C47.5348 102.498 41.0886 101.183 35.0948 98.6342C29.1011 96.0851 23.6828 92.3535 19.1641 87.6626V60.589L22.0936 64.5672V85.862L23.0634 85.8365L24.0098 69.3218L25.9817 81.9872L27.4097 80.0498L28.8556 81.9538L29.8576 69.3384L31.7782 85.7632C31.7809 85.7861 31.7919 85.8073 31.8092 85.8226C31.8264 85.838 31.8487 85.8465 31.8718 85.8465H32.757V82.957L33.7001 81.9538V80.0576L34.6954 79.0377V63.5583L35.6385 60.6334L36.6328 53.8669L37.577 60.6678L38.5879 63.5662V79.0634L39.5233 80.0321V81.9706L40.5009 82.9393V85.8389H41.4618V81.0018L42.405 80.0496V67.4344L43.8841 61.6366L45.3467 67.4511V80.0665L46.3065 81.0187V85.8556H47.2763V82.9057L47.2929 72.28L48.7466 70.3248L50.1746 72.28L50.1913 85.8463H51.1435V51.0509L51.1513 51.0143L51.1724 50.9831C51.2989 51.0113 51.4305 51.0074 51.5551 50.9718C51.6798 50.9361 51.7935 50.8698 51.886 50.7789C51.9784 50.688 52.0466 50.5755 52.0844 50.4514C52.1222 50.3274 52.1283 50.1959 52.1022 50.0689C52.1202 50.0518 52.1441 50.0423 52.1689 50.0422H53.8806V45.1631H54.2554V50.0289H55.9626C55.9568 50.1808 55.9876 50.3318 56.0522 50.4694C56.1168 50.607 56.2135 50.7271 56.334 50.8196C56.5099 50.9362 56.7221 50.9852 56.9313 50.9575C56.9482 50.9757 56.9577 50.9994 56.9579 51.0242V85.8341H57.9278V65.9849C57.9278 65.8382 57.9687 65.6945 58.046 65.57C58.1233 65.4454 58.2339 65.3449 58.3652 65.2797L61.8037 63.5751L65.2421 65.2797C65.3735 65.3449 65.4841 65.4454 65.5614 65.57C65.6387 65.6945 65.6796 65.8382 65.6796 65.9849V85.8465H66.6495V63.5751L70.5527 62.7947C70.6669 62.7719 70.7847 62.7747 70.8977 62.8029C71.0107 62.8311 71.116 62.8841 71.2061 62.9579C71.2961 63.0317 71.3686 63.1246 71.4185 63.2299C71.4683 63.3351 71.4941 63.4501 71.4941 63.5666V85.8465H72.4639V75.5132C72.4639 75.4095 72.4844 75.3067 72.5241 75.2109C72.5639 75.115 72.6221 75.028 72.6955 74.9547L73.0261 74.6245C73.4682 74.1824 73.419 74.2053 74.0392 74.2053H76.3276L78.2783 68.403L80.2158 74.2175H82.851C82.9371 74.2175 83.0223 74.2348 83.1016 74.2682C83.1809 74.3017 83.2527 74.3507 83.3127 74.4123L83.8513 74.9653C83.9976 75.1155 84.0794 75.3169 84.0794 75.5266V85.8341H85.0359V61.6322L88.9508 58.7383Z" fill="#0C1E46" stroke="#0C1E46" stroke-width="6.05426" mask="url(#path-9-inside-1_2049_6290)"/>
</svg>
