<svg width="118" height="118" viewBox="0 0 118 118" fill="none" xmlns="http://www.w3.org/2000/svg">
<path d="M59.0001 117.5C91.3088 117.5 117.5 91.3088 117.5 59.0001C117.5 26.6914 91.3088 0.5 59.0001 0.5C26.6914 0.5 0.5 26.6914 0.5 59.0001C0.5 91.3088 26.6914 117.5 59.0001 117.5Z" stroke="black" stroke-miterlimit="10"/>
<path d="M70.9107 45.3264L58.9631 79.4875L47.0156 45.3264L58.9631 11.1602L70.9107 45.3264Z" stroke="black" stroke-miterlimit="10"/>
<path d="M88.5522 64.1764L61.0703 81.4703L71.784 50.8181L99.2659 33.5293L88.5522 64.1764Z" stroke="black" stroke-miterlimit="10"/>
<path d="M85.466 85.8135L63.0547 83.3199L82.1343 71.3047L104.54 73.7931L85.466 85.8135Z" stroke="black" stroke-miterlimit="10"/>
<path d="M73.9876 95.8749L64.1172 86.041L77.9649 87.5768L87.8404 97.4107L73.9876 95.8749Z" stroke="black" stroke-miterlimit="10"/>
<path d="M29.4611 64.1764L56.943 81.4703L46.2241 50.8181L18.7422 33.5293L29.4611 64.1764Z" stroke="black" stroke-miterlimit="10"/>
<path d="M32.5405 85.8135L54.9467 83.3199L35.8723 71.3047L13.4609 73.7931L32.5405 85.8135Z" stroke="black" stroke-miterlimit="10"/>
<path d="M44.0091 95.8749L53.8847 86.041L40.0318 87.5768L30.1562 97.4107L44.0091 95.8749Z" stroke="black" stroke-miterlimit="10"/>
<path d="M96.9649 64.0975V95.5639L96.9528 95.576C92.0347 100.678 86.136 104.739 79.614 107.51C73.092 110.281 66.0782 111.709 58.9919 111.708C51.9056 111.707 44.8923 110.277 38.3712 107.503C31.8502 104.73 25.9553 100.67 21.0391 95.5663V66.111L24.2263 70.4392V93.6073L25.2814 93.5795L26.3111 75.612L28.4564 89.3916L30.0101 87.2838L31.5831 89.3553L32.6733 75.6302L34.7629 93.4998C34.7658 93.5247 34.7778 93.5478 34.7965 93.5644C34.8153 93.5811 34.8395 93.5904 34.8646 93.5904H35.8277V90.4468L36.8538 89.3553V87.2923L37.9366 86.1827V69.3416L38.9627 66.1593L40.0445 58.7976L41.0717 66.1968L42.1716 69.3501V86.2106L43.1893 87.2645V89.3736L44.2529 90.4275V93.5822H45.2983V88.3196L46.3244 87.2836V73.5586L47.9337 67.2508L49.5249 73.5767V87.3019L50.5692 88.3379V93.6003H51.6243V90.391L51.6424 78.8305L53.2239 76.7033L54.7775 78.8305L54.7957 93.5902H55.8317V55.7339L55.8402 55.694L55.8631 55.6601C56.0008 55.6908 56.1439 55.6866 56.2796 55.6478C56.4152 55.609 56.5389 55.5369 56.6395 55.438C56.7401 55.3391 56.8143 55.2166 56.8554 55.0817C56.8965 54.9468 56.9031 54.8037 56.8747 54.6655C56.8943 54.6469 56.9203 54.6365 56.9473 54.6365H58.8096V49.3281H59.2173V54.622H61.0747C61.0684 54.7872 61.1019 54.9515 61.1722 55.1012C61.2425 55.2509 61.3476 55.3816 61.4788 55.4823C61.6702 55.6091 61.901 55.6624 62.1286 55.6323C62.147 55.652 62.1573 55.6779 62.1576 55.7049V93.577H63.2127V71.9816C63.2128 71.8221 63.2573 71.6657 63.3414 71.5302C63.4255 71.3946 63.5458 71.2853 63.6887 71.2144L67.4297 69.3599L71.1706 71.2144C71.3135 71.2853 71.4338 71.3946 71.5179 71.5302C71.602 71.6657 71.6465 71.8221 71.6465 71.9816V93.5904H72.7017V69.3599L76.9483 68.5108C77.0726 68.486 77.2008 68.489 77.3237 68.5197C77.4466 68.5504 77.5612 68.608 77.6591 68.6883C77.7571 68.7686 77.836 68.8697 77.8902 68.9842C77.9444 69.0987 77.9725 69.2238 77.9725 69.3505V93.5904H79.0276V82.3481C79.0276 82.2353 79.0499 82.1235 79.0931 82.0192C79.1364 81.9149 79.1997 81.8202 79.2796 81.7404L79.6393 81.3812C80.1203 80.9002 80.0668 80.9251 80.7415 80.9251H83.2312L85.3536 74.6125L87.4614 80.9384H90.3285C90.4221 80.9384 90.5148 80.9572 90.6011 80.9936C90.6874 81.03 90.7655 81.0833 90.8308 81.1504L91.4167 81.752C91.5759 81.9154 91.6649 82.1345 91.665 82.3627V93.577H92.7056V67.246L96.9649 64.0975Z" fill="black"/>
</svg>
