<svg preserveAspectRatio="none" width="100%" height="100%" overflow="visible" style="display: block;" viewBox="0 0 35.3333 43.6667" fill="none" xmlns="http://www.w3.org/2000/svg">
<g id="Group">
<path id="Vector" d="M32.25 16.875C32.25 22.25 29.6042 26.3854 25.5792 29.1083C24.6417 29.7417 24.1729 30.0583 23.9417 30.4208C23.7125 30.7792 23.6312 31.2542 23.475 32.2L23.35 32.9354C23.075 34.5979 22.9354 35.4292 22.3521 35.9229C21.7687 36.4167 20.9271 36.4167 19.2417 36.4167H13.8C12.1146 36.4167 11.2729 36.4167 10.6896 35.9229C10.1062 35.4292 9.96875 34.5979 9.68958 32.9354L9.56875 32.2C9.41042 31.2563 9.33333 30.7833 9.10417 30.425C8.875 30.0667 8.40417 29.7458 7.46458 29.1042C3.48333 26.3813 1 22.2479 1 16.875C1 8.11043 7.99583 1.00001 16.625 1.00001C17.6747 0.998897 18.7218 1.105 19.75 1.31668" stroke="var(--stroke-0, white)" stroke-width="2" stroke-linecap="round" stroke-linejoin="round"/>
<path id="Vector_2" d="M20.7917 36.4167V38.5C20.7917 40.4646 20.7917 41.4458 20.1812 42.0563C19.5708 42.6667 18.5896 42.6667 16.625 42.6667C14.6604 42.6667 13.6792 42.6667 13.0688 42.0563C12.4583 41.4458 12.4583 40.4646 12.4583 38.5V36.4167M27.0417 1.00001L27.5792 2.45209C28.2833 4.35626 28.6354 5.30834 29.3292 6.00209C30.025 6.69793 30.9771 7.05001 32.8812 7.75418L34.3333 8.29168L32.8812 8.82918C30.9771 9.53334 30.025 9.88543 29.3313 10.5792C28.6354 11.275 28.2833 12.2271 27.5792 14.1313L27.0417 15.5833L26.5042 14.1313C25.8 12.2271 25.4479 11.275 24.7542 10.5813C24.0583 9.88543 23.1062 9.53334 21.2021 8.82918L19.75 8.29168L21.2021 7.75418C23.1062 7.05001 24.0583 6.69793 24.7521 6.00418C25.4479 5.30834 25.8 4.35626 26.5042 2.45209L27.0417 1.00001Z" stroke="var(--stroke-0, white)" stroke-width="2" stroke-linejoin="round"/>
</g>
</svg>
