<svg preserveAspectRatio="none" width="100%" height="100%" overflow="visible" style="display: block;" viewBox="0 0 50 50" fill="none" xmlns="http://www.w3.org/2000/svg">
<g id="simple-line-icons:energy">
<path id="Vector" d="M29.0695 3.16016L25.5438 21.6844L38.3165 21.7274L20.9305 46.8398L24.4563 26.4602L11.6844 26.4156L29.0695 3.16016ZM29.0719 0.0352051C28.9875 0.0352051 28.9032 0.0382813 28.8204 0.0444824C28.2688 0.0890625 27.9032 0.273438 27.4696 0.564844C27.2255 0.727605 27.0054 0.923785 26.8157 1.14766C26.7588 1.21486 26.7051 1.28473 26.6547 1.35703L9.14458 24.5312C8.45317 25.4789 8.35161 26.7297 8.88286 27.775C9.41333 28.8204 10.486 29.4829 11.6618 29.4915L20.6821 29.5571L17.8461 46.2657C17.5766 47.7016 18.3422 49.1329 19.6899 49.7094C20.0815 49.8777 20.5034 49.9644 20.9297 49.9641C21.9117 49.9641 22.7188 49.5047 23.3243 48.675L40.8563 23.5625C41.5477 22.6148 41.6485 21.3625 41.118 20.3187C40.5875 19.2734 39.5149 18.6108 38.3391 18.6023L29.3188 18.5867L32.1243 3.89526C32.1837 3.65474 32.2136 3.40787 32.2134 3.16011C32.2134 1.46948 30.8672 0.0913574 29.1829 0.0366699C29.1454 0.0351074 29.1086 0.0351074 29.072 0.0351074L29.0719 0.0352051Z" fill="var(--fill-0, white)"/>
</g>
</svg>
