<svg preserveAspectRatio="none" width="100%" height="100%" overflow="visible" style="display: block;" viewBox="0 0 44 44" fill="none" xmlns="http://www.w3.org/2000/svg">
<g id="sauna_18825617 1 [Vectorized]">
<path id="Vector" d="M28.7323 3.26373C29.2556 3.25343 29.6083 3.42499 29.9159 3.70221C30.2613 4.0135 30.5336 4.43643 30.9022 4.95807C31.9629 6.4588 32.6561 8.09894 33.2333 9.87701L33.3983 10.3868L33.8954 10.1866C35.5684 9.51525 37.1758 9.01613 38.9374 8.85846C39.9148 8.77105 40.7118 9.41654 40.7352 10.3438C40.7501 10.9313 40.6234 11.5255 40.5038 12.1905C39.4554 17.3219 35.9105 22.5669 30.6552 23.6387C30.1274 23.7463 29.5652 23.7735 28.9765 23.8028C23.6803 23.9648 19.4787 19.3594 17.8192 14.5255C17.628 13.9684 17.3372 13.0067 17.1474 12.0567C17.0524 11.5816 16.9849 11.1207 16.9647 10.7208C16.944 10.3087 16.9771 10.0129 17.0438 9.83795L17.0429 9.83698C17.1955 9.44546 17.4988 9.13093 17.8837 8.96198L17.8827 8.961C18.107 8.86491 18.4863 8.82835 19.0136 8.87311C19.5271 8.91672 20.1198 9.03303 20.7274 9.18756C21.9415 9.49634 23.1623 9.94394 23.8319 10.2061L24.4032 10.4297L24.5067 9.82428C24.6251 9.12966 25.0312 8.107 25.5487 7.07526C26.0619 6.05208 26.656 5.07711 27.1132 4.48346C27.4807 4.00625 27.6459 3.76593 27.8573 3.59088C28.0285 3.44921 28.2485 3.34163 28.7323 3.26373ZM38.7724 9.26569C38.5359 9.28916 38.2579 9.34463 38.0917 9.37018C35.1654 9.8197 32.3771 11.0833 30.1151 12.9962C29.8965 13.181 29.6608 13.3915 29.4511 13.6202L29.1483 13.9512L29.4433 14.2881C30.5203 15.5176 31.4717 16.8518 32.1386 18.3243C32.257 18.5857 32.3684 18.7822 32.4267 18.9971C32.4669 19.1456 32.4515 19.1976 32.4384 19.2169L32.4315 19.2237C32.4233 19.2287 32.4088 19.2365 32.3886 19.2452C32.3469 19.2629 32.2957 19.2787 32.246 19.2872C32.2373 19.2887 32.2284 19.2882 32.2206 19.2891C32.1041 19.1244 31.9995 18.9362 31.8954 18.7247C31.7858 18.502 31.6394 18.173 31.5126 17.9258L31.5106 17.9229C31.2049 17.3365 30.864 16.7692 30.4901 16.2237V16.2227C27.9003 12.4573 23.7656 9.89481 19.2089 9.3067C18.9288 9.27056 18.5873 9.24876 18.2968 9.25592L18.1991 9.25885L18.1093 9.29791C17.86 9.40683 17.6593 9.56358 17.5214 9.7735C17.3853 9.98056 17.334 10.2028 17.3202 10.4034C17.3067 10.5993 17.3281 10.793 17.3524 10.9581C17.3648 11.0417 17.3795 11.1259 17.3925 11.2022C17.4058 11.2807 17.4179 11.3525 17.4276 11.4219C17.7404 13.6489 18.6887 16.1082 20.1024 18.2051C21.4259 20.1682 23.1843 21.8537 25.2577 22.712L25.6767 22.8721C28.0292 23.7036 30.6149 23.5718 32.871 22.5059L32.8739 22.5049C35.934 21.0392 38.4724 17.4476 39.5272 14.3458C39.7059 13.8204 39.9174 13.0885 40.0829 12.3526C40.2463 11.626 40.3739 10.8559 40.3651 10.2686L40.3642 10.171L40.3261 10.0821L40.2499 9.90826C40.2173 9.84114 40.1767 9.76809 40.1268 9.70026C40.0101 9.54154 39.8506 9.41759 39.6347 9.34283C39.3313 9.23789 39.0268 9.24047 38.7724 9.26569ZM29.1747 3.70319C28.9438 3.63896 28.7152 3.64958 28.5253 3.66901L28.3866 3.68365L28.2753 3.76764C27.8675 4.07476 27.4839 4.61013 27.2518 4.93463C26.1566 6.46624 25.2158 8.41643 24.7645 10.2657L24.6718 10.6465L25.0184 10.8272C25.733 11.2009 26.4471 11.6891 27.1249 12.1817C27.3149 12.3198 27.4922 12.4727 27.702 12.6456C27.9031 12.8112 28.1281 12.9887 28.3778 13.1407V13.1417C28.6998 13.3391 29.0192 13.2684 29.2118 13.2003L29.2909 13.1719L29.3573 13.1202C30.0577 12.5621 30.6962 12.0362 31.412 11.5626C31.571 11.4573 31.7356 11.359 31.91 11.2569C32.0812 11.1567 32.2659 11.0509 32.4472 10.9376C32.5417 10.8785 32.8506 10.6745 32.8583 10.2852V10.2735C32.8565 9.854 32.6789 9.41623 32.5936 9.16803C31.9678 7.34639 31.024 5.63146 29.8095 4.13385V4.13287C29.6336 3.91605 29.424 3.77254 29.1747 3.70319Z" fill="var(--fill-0, white)" stroke="var(--stroke-0, white)"/>
<path id="Vector_2" d="M9.61639 29.7295C9.60785 27.85 9.60859 25.9704 9.61932 24.0909L9.62225 23.6006L9.133 23.5879C8.64546 23.5754 7.23842 23.607 5.93866 23.6094C5.27861 23.6106 4.63833 23.604 4.13104 23.5821C3.87673 23.5711 3.66278 23.5567 3.50018 23.5381C3.36898 23.5231 3.30276 23.5082 3.27948 23.503C3.27736 23.4991 3.27425 23.4937 3.27167 23.4864C3.24658 23.4146 3.25414 23.3249 3.27557 23.2813C3.28258 23.2671 3.28875 23.2606 3.2912 23.2578C3.2937 23.255 3.29753 23.2508 3.30585 23.2451C3.32307 23.2335 3.35168 23.2198 3.40643 23.1992C4.25561 23.1561 5.1333 23.1646 6.02753 23.1787C6.94116 23.1932 7.87521 23.2131 8.78534 23.1836C8.98818 23.1771 9.24716 23.1747 9.49432 23.1944C9.67924 23.209 9.82618 23.2343 9.92987 23.2647C9.95761 23.3356 9.98747 23.4577 9.99921 23.6563C10.0071 23.7893 10.0061 23.9312 10.0041 24.0801C10.0022 24.2216 9.99857 24.3808 10.0021 24.5196L10.0148 25.0303L10.5246 25.0059C10.6964 24.998 10.9047 25.0036 11.0988 25.0127C12.0643 25.0583 13.0711 25.0188 14.0217 25.0108C14.9875 25.0026 15.9176 25.0265 16.8019 25.1856V25.1846C17.6593 25.3395 18.4242 25.7793 19.2336 26.3076C20.0165 26.8187 20.8681 27.4345 21.8019 27.7959C22.0085 27.8758 22.2773 27.9075 22.5197 27.9229C22.7776 27.9393 23.0697 27.9407 23.3537 27.9375C23.951 27.9309 24.4754 27.9056 24.7609 27.9229C25.2174 27.9505 25.6889 27.9346 26.133 27.9209C26.5863 27.907 27.0149 27.8947 27.426 27.9229C28.2376 27.9787 28.9153 28.1856 29.4474 28.7881C30.0105 29.4257 30.1285 30.0539 30.0783 30.9785L30.0412 31.6719L30.7101 31.4883C33.2624 30.7854 35.734 29.9777 38.2648 29.3438C38.5905 29.2623 39.0288 29.3279 39.4172 29.4912C40.0933 29.7759 40.5483 30.4125 40.6857 31.1338C40.8223 31.8506 40.6342 32.5927 40.0988 33.0948C39.8422 33.3159 39.3805 33.5743 38.841 33.8369C38.5662 33.9707 38.3004 34.0926 38.05 34.2061L37.3508 34.5254L33.8762 36.17L28.6916 38.626H28.6906C27.6842 39.1033 26.5835 39.6562 25.5998 40.0664H25.5988C25.2406 40.2164 24.873 40.3425 24.4982 40.4434L24.1213 40.5362C22.4669 40.8997 20.7453 40.8144 19.1349 40.2891H19.1359C18.2294 39.992 17.3132 39.5058 16.383 38.959C15.4727 38.4239 14.5181 37.8111 13.6154 37.3242C13.322 37.166 13.0923 37.0241 12.884 36.8936C12.6797 36.7657 12.4788 36.6375 12.2678 36.5284C11.8187 36.2961 11.3412 36.1564 10.5461 36.0928L10.0344 36.0518L10.006 36.5635C9.99491 36.7699 10.005 37.0145 10.007 37.2012C10.0093 37.4083 10.0038 37.5766 9.97772 37.711C9.95185 37.844 9.9154 37.8928 9.89667 37.9102C9.88641 37.9197 9.83692 37.9635 9.66132 37.9629C7.56127 37.9552 5.46177 38.0077 3.39178 37.9395C3.33067 37.9375 3.31082 37.9176 3.29901 37.9034C3.27935 37.8797 3.25824 37.8323 3.258 37.7676C3.25776 37.7034 3.27825 37.6546 3.29999 37.628C3.31449 37.6102 3.34197 37.5848 3.41718 37.5801C3.72718 37.5608 4.03961 37.5544 4.3576 37.5528L5.33221 37.5537L9.09979 37.5518L9.59882 37.5508L9.59979 37.0528C9.60076 36.7112 9.56373 36.3932 9.6037 36.0655C9.62226 35.9135 9.65356 35.8223 9.68085 35.7764C9.69735 35.7487 9.69877 35.7547 9.70331 35.7539C11.5729 35.3912 12.8228 36.4032 14.6086 37.4678L14.6203 37.4756C15.0753 37.7296 15.5215 37.9988 15.9767 38.2725C16.429 38.5444 16.8896 38.8194 17.3605 39.0742C18.3032 39.5843 19.3096 40.0252 20.4406 40.2227V40.2237C21.7972 40.4634 23.1904 40.3969 24.5178 40.0284L24.5197 40.0274C25.1164 39.8589 25.9046 39.5198 26.6584 39.1709C27.412 38.8221 28.186 38.4381 28.7199 38.1846L35.3 35.0664L38.2463 33.6709C38.4664 33.5663 38.6579 33.491 38.9338 33.3653C39.1787 33.2536 39.4482 33.1188 39.6799 32.9492C40.0652 32.6672 40.2764 32.1932 40.3381 31.8057C40.4198 31.2908 40.2472 30.7735 39.966 30.3975C39.7228 30.0723 39.2948 29.7384 38.7658 29.7276C38.4817 29.7219 38.045 29.8059 37.593 29.9121C37.1202 30.0233 36.565 30.1754 36.0109 30.335C35.4559 30.4949 34.8966 30.6644 34.4142 30.8116C33.9287 30.9597 33.527 31.0835 33.2785 31.1553C32.3128 31.4345 31.1254 31.7177 30.09 32.0655L29.6564 32.2188C29.3054 32.3498 29.0047 32.5613 28.7824 32.7032C28.5416 32.8568 28.3515 32.9603 28.133 33.002C27.4487 33.1324 26.7322 33.0868 25.9338 33.085L22.9445 33.0782C22.0497 33.077 21.2732 33.1179 20.426 33.0596C20.3245 33.0526 20.2918 33.0214 20.2834 33.0127C20.2704 32.9992 20.2535 32.9713 20.2492 32.9219C20.2448 32.8706 20.2565 32.8177 20.2766 32.7793C20.2961 32.7421 20.311 32.7396 20.3039 32.7422C20.3368 32.7302 20.415 32.7128 20.55 32.6992C20.6777 32.6864 20.8288 32.6793 20.9904 32.6768C21.3264 32.6716 21.6377 32.6837 21.8869 32.6846H21.8879L25.6564 32.6924C25.9787 32.6927 26.4571 32.7079 26.8723 32.7032C27.3033 32.6982 27.768 32.6737 28.1672 32.5811C28.904 32.4099 29.3817 31.8323 29.5812 31.208C29.7797 30.587 29.7296 29.8464 29.3351 29.2578H29.3342C29.061 28.8487 28.6497 28.5515 28.175 28.4219H28.174C27.8763 28.3396 27.5738 28.3282 27.3176 28.3291C27.0333 28.3302 26.837 28.3434 26.631 28.3311C25.8961 28.2873 24.8772 28.3454 23.968 28.3575C23.0099 28.3702 22.167 28.333 21.6281 28.1465C20.8809 27.8879 20.145 27.3568 19.2902 26.7901C18.4745 26.2492 17.5523 25.6799 16.5402 25.5274C15.8056 25.4167 15.0068 25.402 14.2326 25.4092C13.4416 25.4166 12.6955 25.445 11.9973 25.4297C11.7709 25.4248 11.4691 25.4389 11.2277 25.4434C10.9609 25.4483 10.7496 25.4428 10.6125 25.417H10.6135L10.5949 25.4141L10.0178 25.2989L9.99823 25.8877C9.96157 26.9895 9.97757 28.0997 9.99042 29.1944C10.0033 30.2936 10.0134 31.379 9.96503 32.4522C9.96036 32.5555 9.9255 32.5977 9.90546 32.6162C9.87923 32.6404 9.83718 32.6597 9.78534 32.6612C9.7326 32.6626 9.69347 32.645 9.67303 32.628C9.66052 32.6175 9.63583 32.593 9.63202 32.5196C9.58465 31.6074 9.61652 30.6885 9.61639 29.7325V29.7295Z" fill="var(--fill-0, white)" stroke="var(--stroke-0, white)"/>
</g>
</svg>
