<svg preserveAspectRatio="none" width="100%" height="100%" overflow="visible" style="display: block;" viewBox="0 0 50 50" fill="none" xmlns="http://www.w3.org/2000/svg">
<g id="material-symbols-light:water">
<path id="Vector" d="M5.20833 35.8958V33.7333C6.2875 33.6 7.12778 33.2458 7.72917 32.6708C8.33194 32.0972 9.47083 31.8104 11.1458 31.8104C12.9014 31.8104 14.1403 32.1576 14.8625 32.8521C15.5847 33.5465 16.6507 33.8937 18.0604 33.8937C19.4868 33.8937 20.5611 33.5465 21.2833 32.8521C22.0056 32.1576 23.2444 31.8104 25 31.8104C26.7389 31.8104 27.9778 32.1576 28.7167 32.8521C29.4556 33.5465 30.5299 33.8937 31.9396 33.8937C33.366 33.8937 34.4361 33.5465 35.15 32.8521C35.8653 32.1576 37.1 31.8104 38.8542 31.8104C40.5292 31.8104 41.6681 32.0979 42.2708 32.6729C42.8722 33.2465 43.7125 33.6007 44.7917 33.7354V35.8979C43.5333 35.7368 42.5347 35.3625 41.7958 34.775C41.0569 34.1875 40.0764 33.8937 38.8542 33.8937C37.4708 33.8937 36.4111 34.241 35.675 34.9354C34.9389 35.6299 33.6937 35.9771 31.9396 35.9771C30.2007 35.9771 28.9618 35.6299 28.2229 34.9354C27.484 34.241 26.4097 33.8944 25 33.8958C23.5736 33.8958 22.4993 34.2431 21.7771 34.9375C21.0549 35.6319 19.816 35.9792 18.0604 35.9792C16.3049 35.9792 15.0639 35.6319 14.3375 34.9375C13.6111 34.2431 12.5472 33.8958 11.1458 33.8958C9.87917 33.8958 8.90486 34.1896 8.22292 34.7771C7.54097 35.366 6.53611 35.7403 5.20833 35.9M5.20833 28.0458V25.8833C6.2875 25.75 7.12778 25.3958 7.72917 24.8208C8.33194 24.2472 9.47083 23.9604 11.1458 23.9604C12.8847 23.9604 14.1194 24.3076 14.85 25.0021C15.5806 25.6965 16.6507 26.0437 18.0604 26.0437C19.4868 26.0437 20.5611 25.6965 21.2833 25.0021C22.0056 24.3076 23.2444 23.9597 25 23.9583C26.7389 23.9583 27.975 24.3056 28.7083 25C29.4417 25.6944 30.5111 26.0417 31.9167 26.0417C33.3417 26.0417 34.4153 25.6944 35.1375 25C35.8597 24.3056 37.0986 23.9583 38.8542 23.9583C40.5125 23.9583 41.6514 24.2458 42.2708 24.8208C42.8889 25.3944 43.7292 25.7479 44.7917 25.8812V28.0437C43.5181 27.884 42.516 27.5104 41.7854 26.9229C41.0549 26.3354 40.0778 26.0417 38.8542 26.0417C37.4708 26.0417 36.4111 26.3889 35.675 27.0833C34.9389 27.7778 33.6937 28.125 31.9396 28.125C30.2007 28.125 28.9618 27.7778 28.2229 27.0833C27.4854 26.3889 26.4111 26.0417 25 26.0417C23.5736 26.0417 22.5035 26.3889 21.7896 27.0833C21.0743 27.7778 19.8396 28.125 18.0854 28.125C16.3312 28.125 15.0812 27.7778 14.3354 27.0833C13.5896 26.3889 12.5264 26.0417 11.1458 26.0417C9.89583 26.0417 8.92153 26.3354 8.22292 26.9229C7.52431 27.5104 6.51944 27.8847 5.20833 28.0458ZM5.20833 20.1917V18.0292C6.2875 17.8958 7.12778 17.5417 7.72917 16.9667C8.33194 16.3931 9.47083 16.1062 11.1458 16.1062C12.8847 16.1062 14.1194 16.4535 14.85 17.1479C15.5806 17.8424 16.6507 18.1896 18.0604 18.1896C19.4868 18.1896 20.5611 17.8424 21.2833 17.1479C22.0056 16.4535 23.2444 16.1056 25 16.1042C26.7389 16.1042 27.975 16.4514 28.7083 17.1458C29.4417 17.8403 30.5111 18.1875 31.9167 18.1875C33.3417 18.1875 34.4153 17.8403 35.1375 17.1458C35.8597 16.4514 37.0986 16.1042 38.8542 16.1042C40.5125 16.1042 41.6514 16.391 42.2708 16.9646C42.8889 17.5396 43.7292 17.8937 44.7917 18.0271V20.1896C43.5181 20.0299 42.516 19.6562 41.7854 19.0687C41.0549 18.4812 40.0778 18.1875 38.8542 18.1875C37.4708 18.1875 36.4111 18.5347 35.675 19.2292C34.9389 19.9236 33.6937 20.2708 31.9396 20.2708C30.2007 20.2708 28.9618 19.9236 28.2229 19.2292C27.4854 18.5347 26.4111 18.1875 25 18.1875C23.5736 18.1875 22.5035 18.5347 21.7896 19.2292C21.0743 19.9236 19.8396 20.2708 18.0854 20.2708C16.3312 20.2708 15.0812 19.9236 14.3354 19.2292C13.5896 18.5347 12.5264 18.1875 11.1458 18.1875C9.89583 18.1875 8.90833 18.4812 8.18333 19.0687C7.45833 19.6562 6.46667 20.0306 5.20833 20.1917Z" fill="var(--fill-0, white)"/>
</g>
</svg>
