<svg preserveAspectRatio="none" width="100%" height="100%" overflow="visible" style="display: block;" viewBox="0 0 45 45" fill="none" xmlns="http://www.w3.org/2000/svg">
<g id="meteocons:moon-waning-crescent">
<g id="Vector">
</g>
<path id="Vector_2" d="M21.0478 6.46314C21.7751 6.12826 22.5244 5.84816 23.2901 5.625L24.7223 5.27713C13.2003 16.5937 21.0938 35.1545 37.9688 35.675L36.5625 36.7037C34.6475 37.9695 32.5028 38.8098 30.2624 39.172C28.022 39.5343 25.7341 39.4107 23.5415 38.809C21.349 38.2073 19.299 37.1404 17.5197 35.675C15.7403 34.2096 14.2699 32.3772 13.2003 30.2923C12.1306 28.2074 11.4848 25.9149 11.303 23.5579C11.1213 21.2009 11.4077 18.8301 12.1442 16.5937C12.8806 14.3574 14.0515 12.3035 15.5834 10.5604C17.1154 8.81731 18.9756 7.4225 21.0478 6.46314Z" stroke="var(--stroke-0, white)" stroke-width="2" stroke-linecap="round" stroke-linejoin="round"/>
</g>
</svg>
