<svg preserveAspectRatio="none" width="100%" height="100%" overflow="visible" style="display: block;" viewBox="0 0 50 50" fill="none" xmlns="http://www.w3.org/2000/svg">
<g id="arrow_6879471 1 [Vectorized]">
<path id="Vector" d="M24.8371 8.00919C25.3852 7.94972 25.6889 8.18209 25.9717 8.61344C26.2124 8.98048 26.4629 9.34847 26.7065 9.71407L28.7568 12.7913L32.4094 18.2709L33.5459 19.9739C33.7475 20.2749 34.0305 20.6726 34.2112 20.9795C34.3205 21.1631 34.3745 21.3745 34.3669 21.5884C34.3469 22.0291 33.9968 22.4895 33.5468 22.5501C32.9936 22.6053 32.4123 22.5906 31.854 22.5857C31.32 22.5811 30.7495 22.6114 30.2219 22.5855C30.3916 27.0681 31.1472 31.5096 32.4695 35.7964C32.7412 36.7032 33.0354 37.6031 33.3513 38.4954C33.4885 38.8794 33.6296 39.262 33.7741 39.6431C33.9289 40.0396 34.3442 40.9317 34.363 41.2867C34.3784 41.5694 34.2744 41.8455 34.0764 42.0481C33.8789 42.2508 33.5991 42.3797 33.3142 42.3748C33.031 42.3699 32.7524 42.2361 32.5637 42.0269C32.2614 41.6917 31.719 40.1106 31.5446 39.6311C29.7724 34.7588 28.5674 29.5745 28.2229 24.3943C28.1648 23.5218 28.0786 22.4407 28.1291 21.5745C28.1472 21.2659 28.2295 20.9641 28.4721 20.7554C28.6123 20.6348 28.78 20.5633 28.9597 20.5242C29.3176 20.4466 29.7221 20.4825 30.0874 20.4829C30.5173 20.4834 30.9509 20.4724 31.3799 20.502C30.5879 19.2713 29.7402 18.0296 28.9272 16.8101L25.0678 11.0249C25.0476 11.0028 25.0251 10.9901 24.9997 10.9723C24.8989 11.0096 24.0493 12.3361 23.9057 12.5515L21.7691 15.7556C20.7483 17.2864 19.5869 18.9527 18.6179 20.5022C18.72 20.4966 18.8222 20.493 18.9244 20.491C19.4462 20.4829 20.6368 20.4204 21.094 20.5423C21.2807 20.5921 21.4541 20.6868 21.59 20.825C21.8382 21.0774 21.8762 21.4209 21.8783 21.7571C21.8826 22.4397 21.8449 23.1263 21.8094 23.8079C21.5325 29.127 20.2779 34.6221 18.4557 39.6133C18.2555 40.1619 17.7356 41.7266 17.371 42.0816C17.1733 42.274 16.8976 42.3897 16.6202 42.3753C16.3328 42.3604 16.0581 42.2146 15.8706 41.9988C15.7086 41.8123 15.6301 41.6101 15.6328 41.3621C15.638 40.9034 16.2719 39.5291 16.4626 39.0022C17.9934 34.833 19.0246 30.4971 19.5347 26.085C19.6677 24.8597 19.703 23.7984 19.7786 22.5872C18.9755 22.6087 18.1646 22.5679 17.349 22.5891C16.6682 22.607 15.8614 22.627 15.6518 21.7808C15.6017 21.5784 15.6308 21.2637 15.7366 21.0796C16.007 20.6092 16.3284 20.1591 16.6306 19.7065L18.3932 17.0615L24.064 8.55751C24.2848 8.23265 24.4214 8.08849 24.8371 8.00919Z" fill="var(--fill-0, white)"/>
</g>
</svg>
