<svg preserveAspectRatio="none" width="100%" height="100%" overflow="visible" style="display: block;" viewBox="0 0 20 20" fill="none" xmlns="http://www.w3.org/2000/svg">
<g id="Frame 1321325413">
<path id="Heading 2 &#226;&#134;&#146; Shop by Category" d="M9.76 14.608C9.672 14.088 9.44 13.528 9.064 12.928C8.688 12.32 8.152 11.756 7.456 11.236C6.768 10.716 6.08 10.384 5.392 10.24V9.736C6.072 9.576 6.724 9.28 7.348 8.848C7.98 8.408 8.508 7.88 8.932 7.264C9.364 6.632 9.64 6.008 9.76 5.392H10.264C10.336 5.792 10.48 6.204 10.696 6.628C10.912 7.044 11.188 7.444 11.524 7.828C11.868 8.204 12.252 8.544 12.676 8.848C13.308 9.296 13.952 9.592 14.608 9.736V10.24C14.168 10.328 13.712 10.508 13.24 10.78C12.776 11.052 12.344 11.376 11.944 11.752C11.544 12.12 11.216 12.508 10.96 12.916C10.584 13.516 10.352 14.08 10.264 14.608H9.76Z" fill="var(--fill-0, #1E1E1E)"/>
</g>
</svg>
