<svg width="95" height="104" viewBox="0 0 95 104" fill="none" xmlns="http://www.w3.org/2000/svg">
<path d="M90.7161 90.328C90.7161 88.5341 90.8583 87.031 90.6514 85.5796C90.5641 84.9622 89.8433 84.2996 89.2518 83.9279C86.3846 82.108 83.2718 80.6534 80.5986 78.5653C71.9486 71.8031 66.822 62.901 66.5408 51.3354C66.4632 48.0545 67.6722 47.2302 70.4262 48.5135C78.3876 52.2049 86.9503 50.0392 91.5177 43.18C96.4989 35.6937 95.7974 25.725 89.8271 19.189C82.2051 10.8429 69.6569 10.5908 61.0037 18.5684C55.8221 23.3459 53.359 29.5133 52.7449 36.5309C50.6858 60.0338 62.4744 79.4089 83.9345 87.9199C86.0582 88.7603 88.2336 89.4521 90.7161 90.328Z" fill="#D4D2D2" fill-opacity="0.8"/>
<path d="M38.2004 90.328C38.2004 88.5341 38.3427 87.031 38.1358 85.5796C38.0485 84.9622 37.3277 84.2996 36.7362 83.9279C33.869 82.108 30.7562 80.6534 28.083 78.5653C19.433 71.8031 14.3064 62.901 14.0252 51.3354C13.9476 48.0545 15.1565 47.2302 17.9106 48.5135C25.872 52.2049 34.4347 50.0392 39.0021 43.18C43.9832 35.6937 43.2818 25.725 37.3115 19.189C29.6895 10.8429 17.1412 10.5908 8.48806 18.5684C3.3065 23.3459 0.843389 29.5133 0.22923 36.5309C-1.82982 60.0338 9.95881 79.4089 31.4188 87.9199C33.5425 88.7603 35.7179 89.4521 38.2004 90.328Z" fill="#D4D2D2" fill-opacity="0.8"/>
</svg>
