<svg preserveAspectRatio="none" width="100%" height="100%" overflow="visible" style="display: block;" viewBox="0 0 42.3146 103.084" fill="none" xmlns="http://www.w3.org/2000/svg">
<g id="Frame 1321325455">
<path id="Vector" d="M4.11206 90.3279C4.11206 88.5339 3.96984 87.0309 4.17671 85.5795C4.26399 84.9621 4.98481 84.2995 5.57635 83.9277C8.4435 82.1079 11.5563 80.6533 14.2295 78.5652C22.8795 71.8029 28.0061 62.9009 28.2873 51.3353C28.3649 48.0544 27.156 47.2301 24.4019 48.5134C16.4405 52.2048 7.87783 50.0391 3.31042 43.1799C-1.67073 35.6936 -0.969299 25.7248 5.00098 19.1889C12.623 10.8428 25.1713 10.5907 33.8244 18.5683C39.006 23.3458 41.4691 29.5132 42.0833 36.5308C44.1423 60.0337 32.3537 79.4088 10.8937 87.9198C8.76997 88.7602 6.59456 89.4519 4.11206 90.3279Z" fill="var(--fill-0, #D4D2D2)" fill-opacity="0.8"/>
</g>
</svg>
