<svg preserveAspectRatio="none" width="100%" height="100%" overflow="visible" style="display: block;" viewBox="0 0 64.8298 64.8298" fill="none" xmlns="http://www.w3.org/2000/svg">
<g id="fluent:person-support-20-regular">
<path id="Vector" d="M32.4189 47.0017C30.7891 47.002 29.2189 46.3885 28.0211 45.2832C26.8233 44.1779 26.0858 42.662 25.9554 41.0374C21.6319 39.507 17.988 36.4984 15.667 32.5426C13.346 28.5868 12.4971 23.9383 13.2702 19.4175C14.0433 14.8967 16.3887 10.7944 19.8923 7.83473C23.3959 4.87504 27.8325 3.24828 32.4189 3.2416C37.297 3.2409 41.9973 5.07333 45.5877 8.37555C49.1781 11.6778 51.3965 16.2087 51.803 21.0698C51.8166 21.2806 51.7861 21.492 51.7136 21.6905C51.6411 21.8889 51.528 22.0701 51.3817 22.2225C51.2354 22.3749 51.059 22.4953 50.8636 22.5758C50.6683 22.6564 50.4584 22.6955 50.2471 22.6905C49.8129 22.6797 49.3983 22.5077 49.0838 22.2082C48.7693 21.9087 48.5774 21.5029 48.5453 21.0698C48.2566 18.2038 47.2093 15.4665 45.5112 13.1397C43.8132 10.813 41.5256 8.98079 38.8842 7.83183C36.2427 6.68288 33.3428 6.25866 30.4829 6.60285C27.623 6.94703 24.9066 8.04719 22.6131 9.79006C20.3197 11.5329 18.5322 13.8555 17.4347 16.5187C16.3371 19.182 15.9692 22.0896 16.3687 24.9423C16.7683 27.7949 17.9209 30.4896 19.7078 32.7488C21.4948 35.008 23.8516 36.7502 26.5356 37.7959C27.024 36.7406 27.7872 35.8361 28.7453 35.1772C29.7033 34.5183 30.821 34.1291 31.9811 34.0506C33.1413 33.972 34.3012 34.2069 35.3393 34.7307C36.3775 35.2545 37.2556 36.0478 37.8818 37.0276C38.508 38.0074 38.8591 39.1376 38.8984 40.2997C38.9377 41.4618 38.6637 42.6131 38.1051 43.633C37.5465 44.6528 36.7239 45.5037 35.7235 46.0963C34.7231 46.689 33.5817 47.0017 32.4189 47.0017ZM16.2407 38.898H16.5356C17.7998 40.133 19.2034 41.2221 20.7236 42.1395H16.2407C14.4222 42.1395 12.97 43.5884 12.97 45.381C12.97 49.6241 14.9862 52.7845 18.393 54.9531C21.8614 57.167 26.7949 58.3469 32.4189 58.3469C38.0429 58.3469 42.9765 57.167 46.4449 54.9531C49.8484 52.7813 51.8679 49.6273 51.8679 45.381C51.8679 44.5213 51.5264 43.6968 50.9185 43.0889C50.3106 42.481 49.4861 42.1395 48.6264 42.1395H42.0105C42.1919 41.0666 42.1919 39.9709 42.0105 38.898H48.6264C50.3458 38.898 51.9947 39.581 53.2105 40.7968C54.4263 42.0126 55.1094 43.6616 55.1094 45.381C55.1094 50.8623 52.4092 54.9952 48.1888 57.6889C44.0332 60.3372 38.4319 61.5884 32.4189 61.5884C26.406 61.5884 20.8047 60.3372 16.6491 57.6889C12.4287 54.9985 9.72851 50.8591 9.72851 45.381C9.72851 41.7732 12.6556 38.898 16.2407 38.898ZM45.3849 22.6905C45.3856 24.8839 44.8299 27.0415 43.7698 28.9616C42.7097 30.8817 41.1798 32.5015 39.3233 33.6695C38.4579 32.7969 37.435 32.0962 36.3087 31.6046C38.3563 30.711 40.0338 29.1396 41.059 27.1546C42.0842 25.1696 42.3947 22.8922 41.9383 20.7052C41.4818 18.5182 40.2863 16.5551 38.5526 15.146C36.819 13.7368 34.653 12.9675 32.4189 12.9675C30.1848 12.9675 28.0189 13.7368 26.2852 15.146C24.5516 16.5551 23.356 18.5182 22.8996 20.7052C22.4431 22.8922 22.7536 25.1696 23.7789 27.1546C24.8041 29.1396 26.4816 30.711 28.5291 31.6046C27.3946 32.1006 26.3736 32.804 25.5146 33.6695C23.0524 32.1211 21.1823 29.7898 20.205 27.0503C19.7064 25.6509 19.452 24.1762 19.453 22.6905C19.453 19.2518 20.819 15.9538 23.2506 13.5222C25.6822 11.0906 28.9801 9.72458 32.4189 9.72458C35.8577 9.72458 39.1557 11.0906 41.5873 13.5222C44.0188 15.9538 45.3849 19.2518 45.3849 22.6905Z" fill="var(--fill-0, white)"/>
</g>
</svg>
