<svg preserveAspectRatio="none" width="100%" height="100%" overflow="visible" style="display: block;" viewBox="0 0 56.7261 51.2707" fill="none" xmlns="http://www.w3.org/2000/svg">
<g id="Group">
<path id="Vector" d="M1.35062 12.1014V10.7508C0.992414 10.7508 0.648878 10.8931 0.395588 11.1464C0.142297 11.3997 0 11.7432 0 12.1014H1.35062ZM31.0643 12.1014H32.4149C32.4149 11.7432 32.2726 11.3997 32.0193 11.1464C31.766 10.8931 31.4225 10.7508 31.0643 10.7508V12.1014ZM31.0643 17.5039V16.1533C30.7061 16.1533 30.3625 16.2956 30.1092 16.5489C29.8559 16.8022 29.7137 17.1457 29.7137 17.5039H31.0643ZM1.35062 13.452H31.0643V10.7508H1.35062V13.452ZM29.7137 12.1014V44.5163H32.4149V12.1014H29.7137ZM2.70124 39.1138V12.1014H0V39.1138H2.70124ZM31.0643 18.8545H44.5705V16.1533H31.0643V18.8545ZM54.0248 28.3089V39.1138H56.7261V28.3089H54.0248ZM32.4149 44.5163V17.5039H29.7137V44.5163H32.4149ZM47.4338 47.3796C46.6741 48.1384 45.6442 48.5646 44.5705 48.5646C43.4967 48.5646 42.4669 48.1384 41.7072 47.3796L39.7947 49.2921C40.4218 49.9194 41.1663 50.417 41.9858 50.7565C42.8052 51.0959 43.6835 51.2707 44.5705 51.2707C45.4575 51.2707 46.3358 51.0959 47.1552 50.7565C47.9746 50.417 48.7192 49.9194 49.3463 49.2921L47.4338 47.3796ZM41.7072 41.653C42.4669 40.8942 43.4967 40.468 44.5705 40.468C45.6442 40.468 46.6741 40.8942 47.4338 41.653L49.3463 39.7405C48.7192 39.1132 47.9746 38.6157 47.1552 38.2762C46.3358 37.9367 45.4575 37.7619 44.5705 37.7619C43.6835 37.7619 42.8052 37.9367 41.9858 38.2762C41.1663 38.6157 40.4218 39.1132 39.7947 39.7405L41.7072 41.653ZM15.0189 47.3796C14.2592 48.1384 13.2293 48.5646 12.1556 48.5646C11.0818 48.5646 10.052 48.1384 9.29227 47.3796L7.37979 49.2921C8.0069 49.9194 8.75143 50.417 9.57087 50.7565C10.3903 51.0959 11.2686 51.2707 12.1556 51.2707C13.0426 51.2707 13.9209 51.0959 14.7403 50.7565C15.5597 50.417 16.3043 49.9194 16.9314 49.2921L15.0189 47.3796ZM9.29227 41.653C10.052 40.8942 11.0818 40.468 12.1556 40.468C13.2293 40.468 14.2592 40.8942 15.0189 41.653L16.9314 39.7405C16.3043 39.1132 15.5597 38.6157 14.7403 38.2762C13.9209 37.9367 13.0426 37.7619 12.1556 37.7619C11.2686 37.7619 10.3903 37.9367 9.57087 38.2762C8.75143 38.6157 8.0069 39.1132 7.37979 39.7405L9.29227 41.653ZM47.4338 41.653C48.228 42.4418 48.6223 43.4763 48.6223 44.5163H51.3236C51.3236 42.7902 50.6645 41.0587 49.3463 39.7405L47.4338 41.653ZM48.6223 44.5163C48.6223 45.5563 48.228 46.5909 47.4338 47.3796L49.3463 49.2921C49.9733 48.6649 50.4707 47.9203 50.8099 47.1009C51.1492 46.2814 51.3237 45.4032 51.3236 44.5163H48.6223ZM39.168 43.1657H31.0643V45.8669H39.168V43.1657ZM41.7072 47.3796C40.9471 46.6205 40.5196 45.5906 40.5186 44.5163H37.8174C37.8174 46.2424 38.4765 47.9739 39.7947 49.2921L41.7072 47.3796ZM40.5186 44.5163C40.5186 43.4763 40.913 42.4418 41.7072 41.653L39.7947 39.7405C39.1676 40.3677 38.6703 41.1123 38.331 41.9317C37.9917 42.7512 37.8172 43.6294 37.8174 44.5163H40.5186ZM9.29227 47.3796C8.53218 46.6205 8.10467 45.5906 8.10372 44.5163H5.40248C5.40248 46.2424 6.06158 47.9739 7.37979 49.2921L9.29227 47.3796ZM8.10372 44.5163C8.10372 43.4763 8.4981 42.4418 9.29227 41.653L7.37979 39.7405C6.75275 40.3677 6.25539 41.1123 5.91612 41.9317C5.57685 42.7512 5.40232 43.6294 5.40248 44.5163H8.10372ZM31.0643 43.1657H17.5581V45.8669H31.0643V43.1657ZM15.0189 41.653C15.8131 42.4418 16.2074 43.4763 16.2074 44.5163H18.9087C18.9087 42.7902 18.2496 41.0587 16.9314 39.7405L15.0189 41.653ZM16.2074 44.5163C16.2074 45.5563 15.8131 46.5909 15.0189 47.3796L16.9314 49.2921C17.5584 48.6649 18.0558 47.9203 18.395 47.1009C18.7343 46.2814 18.9089 45.4032 18.9087 44.5163H16.2074ZM54.0248 39.1138C54.0248 40.1884 53.5979 41.2191 52.8381 41.9789C52.0782 42.7388 51.0476 43.1657 49.973 43.1657V45.8669C51.764 45.8669 53.4817 45.1554 54.7481 43.889C56.0146 42.6225 56.7261 40.9049 56.7261 39.1138H54.0248ZM44.5705 18.8545C47.0779 18.8545 49.4827 19.8506 51.2557 21.6236C53.0287 23.3967 54.0248 25.8014 54.0248 28.3089H56.7261C56.7261 25.085 55.4454 21.9932 53.1658 19.7136C50.8862 17.434 47.7943 16.1533 44.5705 16.1533V18.8545ZM0 39.1138C0 40.9049 0.711486 42.6225 1.97794 43.889C3.24439 45.1554 4.96207 45.8669 6.7531 45.8669V43.1657C5.67848 43.1657 4.64788 42.7388 3.888 41.9789C3.12813 41.2191 2.70124 40.1884 2.70124 39.1138H0Z" fill="var(--fill-0, white)"/>
<path id="Vector_2" d="M16.2085 9.40032C16.2085 7.25108 15.3547 5.18986 13.835 3.67012C12.3152 2.15038 10.254 1.2966 8.10477 1.2966C7.38835 1.2966 6.70128 1.58119 6.1947 2.08777C5.68812 2.59435 5.40353 3.28142 5.40353 3.99784C5.40353 6.14708 6.25731 8.20829 7.77705 9.72803C9.29679 11.2478 11.358 12.1016 13.5072 12.1016H16.2085M16.2085 9.40032V12.1016M16.2085 9.40032C16.2085 7.25108 17.0623 5.18986 18.582 3.67012C20.1018 2.15038 22.163 1.2966 24.3122 1.2966C25.0286 1.2966 25.7157 1.58119 26.2223 2.08777C26.7289 2.59435 27.0135 3.28142 27.0135 3.99784C27.0135 6.14708 26.1597 8.20829 24.6399 9.72803C23.1202 11.2478 21.059 12.1016 18.9097 12.1016H16.2085" stroke="var(--stroke-0, white)" stroke-width="2.59319" stroke-linejoin="round"/>
</g>
</svg>
