<svg preserveAspectRatio="none" width="100%" height="100%" overflow="visible" style="display: block;" viewBox="0 0 64.8298 64.8298" fill="none" xmlns="http://www.w3.org/2000/svg">
<g id="material-symbols-light:lab-research-outline">
<path id="Vector" d="M22.9025 43.166V40.4648H27.4811C27.3604 40.915 27.2659 41.3571 27.1974 41.7911C27.1308 42.2233 27.0903 42.6825 27.0759 43.1687L22.9025 43.166ZM22.5432 56.7262C19.2927 56.7262 16.523 55.6088 14.2342 53.374C11.9453 51.1392 10.8009 48.4118 10.8009 45.1919V20.6755C9.55833 20.6755 8.50304 20.2505 7.63504 19.4005C6.76705 18.5487 6.33305 17.5015 6.33305 16.2589V12.5717C6.33305 11.3292 6.76705 10.2739 7.63504 9.40589C8.50304 8.53789 9.55833 8.10389 10.8009 8.10389H34.2288C35.4713 8.10389 36.5356 8.53789 37.4216 9.40589C38.3058 10.2721 38.7479 11.3274 38.7479 12.5717V16.2589C38.7479 17.5015 38.3058 18.5487 37.4216 19.4005C36.5356 20.2505 35.4713 20.6755 34.2288 20.6755V30.77C33.8056 31.0635 33.4121 31.3751 33.0483 31.7046C32.6846 32.0342 32.3388 32.3925 32.011 32.7797H22.9052V30.0785H31.5275V20.6755H13.5021V45.1946C13.5021 47.687 14.3845 49.7822 16.1494 51.4804C17.9142 53.1786 20.0454 54.0268 22.5432 54.025C23.7209 54.025 24.8185 53.8188 25.836 53.4064C26.8517 52.994 27.7593 52.4268 28.5589 51.7046C28.7461 52.1548 28.9523 52.5681 29.1774 52.9445C29.4025 53.3209 29.6574 53.7017 29.9419 54.0871C28.9334 54.9119 27.8061 55.5575 26.5599 56.0239C25.3138 56.4921 23.9749 56.7262 22.5432 56.7262ZM10.8009 17.9742H34.2288C34.715 17.9742 35.1391 17.8094 35.501 17.4799C35.8648 17.1503 36.0467 16.7434 36.0467 16.2589V12.5717C36.0467 12.0855 35.8648 11.6695 35.501 11.3238C35.1373 10.978 34.7132 10.8051 34.2288 10.8051H10.8009C10.3147 10.8051 9.89958 10.978 9.55563 11.3238C9.21167 11.6695 9.03789 12.0855 9.03429 12.5717V16.2589C9.03429 16.7452 9.20717 17.1521 9.55293 17.4799C9.90049 17.8094 10.3165 17.9742 10.8009 17.9742ZM49.0505 49.938C50.5272 48.4595 51.2655 46.6704 51.2655 44.5706C51.2655 42.4709 50.5272 40.6827 49.0505 39.206C47.572 37.7257 45.7829 36.9856 43.6831 36.9856C41.5851 36.9856 39.7969 37.7257 38.3184 39.206C36.84 40.6827 36.1007 42.4709 36.1007 44.5706C36.1007 46.6704 36.8391 48.4595 38.3157 49.938C39.7924 51.4165 41.5815 52.1548 43.6831 52.153C45.7829 52.153 47.572 51.4147 49.0505 49.938ZM57.4594 60.2081L49.9581 52.7068C49.0379 53.4055 48.0456 53.9385 46.9813 54.3059C45.9188 54.6733 44.8194 54.857 43.6831 54.857C40.827 54.857 38.3986 53.8566 36.3979 51.8559C34.3971 49.8552 33.3977 47.4268 33.3995 44.5706C33.4013 41.7145 34.4007 39.2861 36.3979 37.2854C38.395 35.2847 40.8234 34.2852 43.6831 34.287C46.5428 34.2888 48.9712 35.2883 50.9684 37.2854C52.9655 39.2825 53.9649 41.7109 53.9667 44.5706C53.9667 45.7052 53.7839 46.8046 53.4184 47.8689C53.051 48.9314 52.518 49.9236 51.8192 50.8456L59.3206 58.347L57.4594 60.2081Z" fill="var(--fill-0, white)"/>
</g>
</svg>
