<svg width="1761" height="1080" viewBox="0 0 1761 1080" fill="none" xmlns="http://www.w3.org/2000/svg">
<path d="M1761 1080H0V0H1761V1080ZM712.994 834.342L625.59 921.377L748.195 907.784L835.6 820.749L712.994 834.342ZM1013.51 907.784L1136.11 921.377L1048.71 834.342L926.149 820.749L1013.51 907.784ZM477.82 712.356L646.686 818.743L844.991 796.674L676.172 690.333L477.82 712.356ZM916.741 796.674L1115.09 818.743L1283.91 712.356L1085.61 690.333L916.741 796.674ZM619.399 627.233L862.628 780.295L767.76 509.006L524.531 355.991L619.399 627.233ZM994 509.006L899.178 780.295L1142.41 627.233L1237.23 355.991L994 509.006ZM774.802 460.389L880.544 762.733L986.286 460.389L880.544 158L774.802 460.389Z" fill="#FFFEF8"/>
</svg>
