<svg width="148" height="148" viewBox="0 0 148 148" fill="none" xmlns="http://www.w3.org/2000/svg">
<path d="M72.7441 46.5273C85.7898 46.1129 98.5619 50.445 108.69 58.749C113.548 62.7282 117.686 67.5192 120.919 72.9102H120.918C121.166 73.3201 121.551 73.892 121.857 74.4521C122.166 75.0178 122.453 75.6692 122.496 76.3105V76.3115C122.519 76.6651 122.422 77.0715 122.276 77.4775C122.127 77.8951 121.908 78.3634 121.646 78.8584C121.12 79.8491 120.396 80.9862 119.63 82.1045C118.097 84.3418 116.363 86.5466 115.615 87.4277L115.614 87.4287C108.308 95.9926 98.5451 102.085 87.6582 104.873L87.6553 104.874C84.1087 105.759 81.2144 106.124 77.6182 106.417L77.6045 106.418C64.8023 107.122 52.1643 103.261 41.9277 95.5166V95.5156C36.4145 91.3354 31.7427 86.1437 28.1611 80.2148C27.9132 79.8081 27.5161 79.2221 27.2002 78.6621C26.8801 78.0945 26.576 77.4434 26.5098 76.8145C26.4704 76.4404 26.5601 76.0124 26.7031 75.584C26.8497 75.145 27.0691 74.6551 27.3359 74.1396C27.87 73.1082 28.6148 71.9304 29.4072 70.7734C30.9931 68.4582 32.803 66.1821 33.5967 65.248L33.5986 65.2451C41.2948 56.3167 51.6892 50.1569 63.1982 47.7041C66.1686 47.0684 68.4998 46.8229 71.4678 46.583L71.4805 46.582L72.7441 46.5273ZM116.918 76.4863C107.733 61.0571 91.6647 51.2384 73.543 51.8262L73.542 51.8252C59.6071 52.3896 48.1445 57.3598 38.4814 67.6738C37.647 68.5645 36.278 70.1985 35.001 71.9297C33.7492 73.6267 32.6276 75.3642 32.1592 76.5723C32.1701 76.6037 32.1841 76.6467 32.208 76.7002C32.2805 76.8623 32.3933 77.0719 32.5254 77.2979C32.6569 77.5227 32.7995 77.7511 32.9258 77.9492L33.2295 78.418L33.2314 78.4219C36.1611 83.0374 39.8332 87.1343 44.0986 90.5449H44.0996C52.9656 97.6369 64.0224 101.398 75.3584 101.176L76.6377 101.118C89.8029 100.381 101.223 95.2315 110.347 85.4453C112.864 82.7152 115.068 79.7092 116.918 76.4863Z" fill="#07758B" stroke="#07758B"/>
<path d="M73.0332 56.5225C76.9322 56.3346 80.7985 57.3183 84.1338 59.3457C88.5507 62.0293 91.72 66.3583 92.9434 71.3799C94.1838 76.4482 93.3315 81.8029 90.5781 86.2344L90.5771 86.2334C87.8205 90.6784 83.4082 93.8429 78.3145 95.0283L78.3096 95.0293C73.2628 96.1575 67.9744 95.238 63.6045 92.4717V92.4727C59.2044 89.7014 56.0972 85.2828 54.9756 80.2051L54.9746 80.2041C53.7601 74.6537 54.9213 69.6548 57.9258 64.9668L58.1953 64.5459L58.6172 64.8154C59.1116 65.1322 59.6015 65.4559 60.0869 65.7861H60.0859C60.7726 66.2519 61.4564 66.7222 62.1367 67.1973L62.5215 67.4658L62.2783 67.8672C61.1904 69.6577 60.5185 71.0393 60.0928 73.0781L60.0918 73.0791C59.3367 76.6554 59.993 80.3806 61.9141 83.4795L62.1035 83.7773L62.3018 84.0723C64.3835 87.0877 67.5535 89.1864 71.1523 89.9209H71.1533C74.849 90.6829 78.6961 89.9317 81.835 87.8369L81.8379 87.835C85.0431 85.7277 87.2592 82.4118 87.9795 78.6436C88.6852 74.9229 87.8764 71.0743 85.7324 67.9521L85.7314 67.9502C83.6395 64.8842 80.4198 62.769 76.7754 62.0654L76.417 62.0049C72.7115 61.4147 69.012 62.1516 65.9248 64.3027L65.5146 64.5879L65.2285 64.1787C64.4182 63.0207 63.6189 61.8287 62.8262 60.668L62.5596 60.2783L62.9336 59.9902C65.8145 57.7681 69.5104 56.7742 73.0215 56.5234L73.0332 56.5225Z" fill="#07758B" stroke="#07758B"/>
<path d="M71.834 12.5186C86.1039 12.1937 99.1879 16.0213 110.873 24.3125H110.874C124.582 34.0831 133.845 48.8998 136.625 65.501C139.407 82.0594 135.497 99.0452 125.758 112.724L125.759 112.725C116.066 126.366 101.395 135.647 84.916 138.567H84.9141C68.0913 141.481 50.8036 137.501 36.9482 127.526C23.2989 117.731 14.0925 102.924 11.3506 86.3506C9.2249 73.4945 11.1046 60.2952 16.7344 48.543L16.7354 48.542L17.0908 47.8145C17.9734 46.031 19.2003 43.7092 20.2666 42.2178L20.5312 41.8486L20.9238 42.0762C22.1411 42.7805 23.3333 43.5276 24.4971 44.3174L24.8906 44.585L24.6436 44.9912C22.0242 49.3018 20.5201 52.4413 18.8301 57.1846C18.7821 57.3313 18.7359 57.4789 18.6895 57.626L18.6885 57.627C13.8746 72.7371 14.8972 88.5495 22.2178 102.688L22.5557 103.331C29.7387 116.8 41.9143 126.933 56.4863 131.548H56.4854C71.2055 136.182 87.164 134.783 100.853 127.658L101.495 127.318C114.921 120.11 125.012 107.941 129.604 93.3916C134.214 78.6682 132.792 62.7173 125.648 49.042C118.476 35.3241 106.149 25.0149 91.3779 20.3799V20.3789C76.7463 15.8412 60.9181 17.2188 47.29 24.2148L46.8379 24.4463L46.6133 23.9912C45.9999 22.7493 45.2954 21.4769 44.7041 20.1738L44.5078 19.7412L44.9297 19.5225C53.2652 15.2211 62.454 12.8293 71.8291 12.5195L71.834 12.5186Z" fill="#07758B" stroke="#07758B"/>
<path d="M35.0342 15.5215C35.9609 15.4288 36.6605 15.6434 37.2002 16.1357C37.7069 16.598 38.0226 17.2641 38.2988 17.9434C38.9961 19.6581 39.598 21.3642 40.4902 22.8994V22.9004C41.3347 24.3582 42.4157 25.6659 43.6885 26.7695L43.6895 26.7705C45.9383 28.7293 48.0971 29.5255 50.9102 30.6553H50.9092C51.2882 30.8021 51.769 30.981 52.1953 31.2383C52.6302 31.5007 53.0556 31.8715 53.2871 32.4277C53.8184 33.7051 53.3256 35.0446 52.1562 35.7236C51.3241 36.2068 50.4688 36.5053 49.6533 36.8262C47.7933 37.5581 46.0067 38.3497 44.4678 39.5264L44.1641 39.7666C41.4111 42.0222 40.0046 44.4639 38.7891 47.7881C38.6329 48.2152 38.4317 48.7483 38.1914 49.2627C37.954 49.7709 37.6631 50.2948 37.3174 50.6846C36.9398 51.1101 36.5338 51.2749 36.1416 51.4463L36.0635 51.4795L35.9795 51.4863C35.4265 51.5284 34.951 51.4745 34.54 51.3184C34.1244 51.1603 33.8025 50.9084 33.5449 50.5996C33.0578 50.0156 32.7785 49.1856 32.4854 48.4199C32.3588 48.0894 32.2174 47.7499 32.0732 47.4043C31.9301 47.061 31.7831 46.7105 31.6484 46.3682C30.1648 42.5954 27.3345 39.4998 23.6562 37.7949C22.9408 37.4633 22.1919 37.1644 21.4268 36.8584C20.6664 36.5543 19.8901 36.2436 19.1445 35.8926C18.5766 35.6251 17.8022 35.1295 17.6016 34.2617C17.453 33.6444 17.4699 33.0971 17.6406 32.6152C17.811 32.1346 18.1187 31.7608 18.4824 31.4658C19.1858 30.8953 20.1728 30.5659 20.9668 30.291C25.6551 28.6677 29.5529 25.6468 31.4639 21.0244C31.9878 19.757 32.5296 18.3035 33.1465 17.0205L33.1475 17.0195C33.3423 16.6146 33.5596 16.2941 33.8691 16.0459C34.175 15.8007 34.5321 15.6573 34.9453 15.5381L34.9893 15.5254L35.0342 15.5215ZM35.5137 24.7051C35.3123 25.0453 35.1164 25.3909 34.9004 25.7529L34.8994 25.752C33.1011 28.7661 30.5242 31.2968 27.499 33.0664C27.2272 33.2254 26.9895 33.3537 26.75 33.4717C29.8177 35.2775 32.0496 36.9513 34.2871 40.1875C34.5198 40.524 34.869 41.1569 35.1846 41.7021C35.3022 41.9054 35.4187 42.0994 35.5264 42.2734C37.142 39.1007 39.5626 36.4016 42.5547 34.4541C43.1143 34.0868 43.7011 33.7683 44.2676 33.458C41.5757 32.0504 39.2173 30.0747 37.3613 27.6602L37.3584 27.6572C36.8371 26.9681 36.0477 25.6998 35.5137 24.7051Z" fill="#07758B" stroke="#07758B"/>
</svg>
