<svg width="148" height="148" viewBox="0 0 148 148" fill="none" xmlns="http://www.w3.org/2000/svg">
<mask id="path-1-outside-1_1669_10688" maskUnits="userSpaceOnUse" x="9" y="15" width="129" height="118" fill="black">
<rect fill="white" x="9" y="15" width="129" height="118"/>
<path d="M73.4994 20.6396C69.2891 20.6396 65.2513 22.3505 62.2742 25.3958C59.2971 28.4412 57.6245 32.5716 57.6245 36.8784C57.6245 41.1851 59.2971 45.3155 62.2742 48.3609C65.2513 51.4062 69.2891 53.1171 73.4994 53.1171C77.7096 53.1171 81.7475 51.4062 84.7246 48.3609C87.7017 45.3155 89.3742 41.1851 89.3742 36.8784C89.3742 32.5716 87.7017 28.4412 84.7246 25.3958C81.7475 22.3505 77.7096 20.6396 73.4994 20.6396ZM53.0889 36.8784C53.0889 31.3411 55.2392 26.0306 59.067 22.1151C62.8947 18.1997 68.0862 16 73.4994 16C78.9126 16 84.1041 18.1997 87.9318 22.1151C91.7595 26.0306 93.9099 31.3411 93.9099 36.8784C93.9099 42.4156 91.7595 47.7261 87.9318 51.6416C84.1041 55.557 78.9126 57.7567 73.4994 57.7567C68.0862 57.7567 62.8947 55.557 59.067 51.6416C55.2392 47.7261 53.0889 42.4156 53.0889 36.8784ZM28.1427 34.5585C24.5339 34.5585 21.0729 36.025 18.5211 38.6353C15.9693 41.2456 14.5357 44.7859 14.5357 48.4774C14.5357 52.169 15.9693 55.7093 18.5211 58.3196C21.0729 60.9299 24.5339 62.3964 28.1427 62.3964C31.7515 62.3964 35.2125 60.9299 37.7643 58.3196C40.3161 55.7093 41.7497 52.169 41.7497 48.4774C41.7497 44.7859 40.3161 41.2456 37.7643 38.6353C35.2125 36.025 31.7515 34.5585 28.1427 34.5585ZM10 48.4774C10 43.5554 11.9115 38.835 15.3139 35.3546C18.7163 31.8742 23.3309 29.9189 28.1427 29.9189C32.9544 29.9189 37.5691 31.8742 40.9715 35.3546C44.3739 38.835 46.2854 43.5554 46.2854 48.4774C46.2854 53.3995 44.3739 58.1199 40.9715 61.6003C37.5691 65.0807 32.9544 67.036 28.1427 67.036C23.3309 67.036 18.7163 65.0807 15.3139 61.6003C11.9115 58.1199 10 53.3995 10 48.4774ZM105.249 48.4774C105.249 44.7859 106.683 41.2456 109.234 38.6353C111.786 36.025 115.247 34.5585 118.856 34.5585C122.465 34.5585 125.926 36.025 128.478 38.6353C131.029 41.2456 132.463 44.7859 132.463 48.4774C132.463 52.169 131.029 55.7093 128.478 58.3196C125.926 60.9299 122.465 62.3964 118.856 62.3964C115.247 62.3964 111.786 60.9299 109.234 58.3196C106.683 55.7093 105.249 52.169 105.249 48.4774ZM118.856 29.9189C114.044 29.9189 109.43 31.8742 106.027 35.3546C102.625 38.835 100.713 43.5554 100.713 48.4774C100.713 53.3995 102.625 58.1199 106.027 61.6003C109.43 65.0807 114.044 67.036 118.856 67.036C123.668 67.036 128.282 65.0807 131.685 61.6003C135.087 58.1199 136.999 53.3995 136.999 48.4774C136.999 43.5554 135.087 38.835 131.685 35.3546C128.282 31.8742 123.668 29.9189 118.856 29.9189ZM46.2854 78.6351C46.2854 75.5588 47.48 72.6085 49.6065 70.4333C51.733 68.258 54.6172 67.036 57.6245 67.036H89.3742C92.3815 67.036 95.2657 68.258 97.3922 70.4333C99.5187 72.6085 100.713 75.5588 100.713 78.6351V104.153C100.713 111.536 97.8462 118.617 92.7426 123.837C87.639 129.058 80.717 131.991 73.4994 131.991C66.2818 131.991 59.3598 129.058 54.2562 123.837C49.1525 118.617 46.2854 111.536 46.2854 104.153V78.6351ZM57.6245 71.6756C55.8201 71.6756 54.0896 72.4089 52.8137 73.714C51.5378 75.0192 50.821 76.7893 50.821 78.6351V104.153C50.821 110.306 53.2103 116.206 57.4634 120.557C61.7164 124.907 67.4847 127.351 73.4994 127.351C79.514 127.351 85.2824 124.907 89.5354 120.557C93.7884 116.206 96.1777 110.306 96.1777 104.153V78.6351C96.1777 76.7893 95.4609 75.0192 94.185 73.714C92.9091 72.4089 91.1786 71.6756 89.3742 71.6756H57.6245ZM42.1579 74.9558C41.8851 76.1623 41.7482 77.3968 41.7497 78.6351V79.8739L19.5793 85.9518C17.8381 86.4302 16.3537 87.5961 15.4522 89.1933C14.5508 90.7905 14.3059 92.6884 14.7715 94.4702L18.8808 110.157C19.719 113.359 21.2183 116.339 23.2776 118.899C25.3368 121.458 27.9083 123.536 30.8189 124.993C33.7294 126.45 36.9114 127.252 40.1504 127.345C43.3895 127.438 46.6105 126.82 49.5964 125.533C50.6638 126.779 51.8174 127.937 53.0571 129.008C49.4454 130.875 45.472 131.894 41.4264 131.992C37.3807 132.09 33.3647 131.264 29.6706 129.574C25.9766 127.883 22.6976 125.372 20.0723 122.221C17.447 119.071 15.5416 115.362 14.4948 111.363L10.3901 95.6718C10.0046 94.2004 9.90624 92.6657 10.1006 91.1554C10.295 89.6451 10.7783 88.1887 11.523 86.8695C12.2676 85.5503 13.259 84.394 14.4406 83.4668C15.6221 82.5395 16.9706 81.8594 18.4091 81.4653L42.1579 74.9558ZM93.9416 129.008C95.5835 129.852 97.3283 130.531 99.1758 131.044C106.147 132.955 113.575 131.954 119.825 128.262C126.076 124.57 130.636 118.49 132.504 111.358L136.613 95.6765C137.392 92.7054 136.985 89.5396 135.482 86.8755C133.979 84.2113 131.503 82.2669 128.599 81.4699L104.841 74.9558C105.113 76.1405 105.249 77.3669 105.249 78.6351V79.8739L127.424 85.9518C129.165 86.4302 130.65 87.5961 131.551 89.1933C132.453 90.7905 132.697 92.6884 132.232 94.4702L128.127 110.157C127.289 113.36 125.79 116.342 123.73 118.902C121.67 121.462 119.097 123.541 116.186 124.998C113.274 126.455 110.091 127.256 106.851 127.349C103.611 127.441 100.389 126.822 97.4024 125.533C96.335 126.776 95.1814 127.937 93.9416 129.008Z"/>
</mask>
<path d="M73.4994 20.6396C69.2891 20.6396 65.2513 22.3505 62.2742 25.3958C59.2971 28.4412 57.6245 32.5716 57.6245 36.8784C57.6245 41.1851 59.2971 45.3155 62.2742 48.3609C65.2513 51.4062 69.2891 53.1171 73.4994 53.1171C77.7096 53.1171 81.7475 51.4062 84.7246 48.3609C87.7017 45.3155 89.3742 41.1851 89.3742 36.8784C89.3742 32.5716 87.7017 28.4412 84.7246 25.3958C81.7475 22.3505 77.7096 20.6396 73.4994 20.6396ZM53.0889 36.8784C53.0889 31.3411 55.2392 26.0306 59.067 22.1151C62.8947 18.1997 68.0862 16 73.4994 16C78.9126 16 84.1041 18.1997 87.9318 22.1151C91.7595 26.0306 93.9099 31.3411 93.9099 36.8784C93.9099 42.4156 91.7595 47.7261 87.9318 51.6416C84.1041 55.557 78.9126 57.7567 73.4994 57.7567C68.0862 57.7567 62.8947 55.557 59.067 51.6416C55.2392 47.7261 53.0889 42.4156 53.0889 36.8784ZM28.1427 34.5585C24.5339 34.5585 21.0729 36.025 18.5211 38.6353C15.9693 41.2456 14.5357 44.7859 14.5357 48.4774C14.5357 52.169 15.9693 55.7093 18.5211 58.3196C21.0729 60.9299 24.5339 62.3964 28.1427 62.3964C31.7515 62.3964 35.2125 60.9299 37.7643 58.3196C40.3161 55.7093 41.7497 52.169 41.7497 48.4774C41.7497 44.7859 40.3161 41.2456 37.7643 38.6353C35.2125 36.025 31.7515 34.5585 28.1427 34.5585ZM10 48.4774C10 43.5554 11.9115 38.835 15.3139 35.3546C18.7163 31.8742 23.3309 29.9189 28.1427 29.9189C32.9544 29.9189 37.5691 31.8742 40.9715 35.3546C44.3739 38.835 46.2854 43.5554 46.2854 48.4774C46.2854 53.3995 44.3739 58.1199 40.9715 61.6003C37.5691 65.0807 32.9544 67.036 28.1427 67.036C23.3309 67.036 18.7163 65.0807 15.3139 61.6003C11.9115 58.1199 10 53.3995 10 48.4774ZM105.249 48.4774C105.249 44.7859 106.683 41.2456 109.234 38.6353C111.786 36.025 115.247 34.5585 118.856 34.5585C122.465 34.5585 125.926 36.025 128.478 38.6353C131.029 41.2456 132.463 44.7859 132.463 48.4774C132.463 52.169 131.029 55.7093 128.478 58.3196C125.926 60.9299 122.465 62.3964 118.856 62.3964C115.247 62.3964 111.786 60.9299 109.234 58.3196C106.683 55.7093 105.249 52.169 105.249 48.4774ZM118.856 29.9189C114.044 29.9189 109.43 31.8742 106.027 35.3546C102.625 38.835 100.713 43.5554 100.713 48.4774C100.713 53.3995 102.625 58.1199 106.027 61.6003C109.43 65.0807 114.044 67.036 118.856 67.036C123.668 67.036 128.282 65.0807 131.685 61.6003C135.087 58.1199 136.999 53.3995 136.999 48.4774C136.999 43.5554 135.087 38.835 131.685 35.3546C128.282 31.8742 123.668 29.9189 118.856 29.9189ZM46.2854 78.6351C46.2854 75.5588 47.48 72.6085 49.6065 70.4333C51.733 68.258 54.6172 67.036 57.6245 67.036H89.3742C92.3815 67.036 95.2657 68.258 97.3922 70.4333C99.5187 72.6085 100.713 75.5588 100.713 78.6351V104.153C100.713 111.536 97.8462 118.617 92.7426 123.837C87.639 129.058 80.717 131.991 73.4994 131.991C66.2818 131.991 59.3598 129.058 54.2562 123.837C49.1525 118.617 46.2854 111.536 46.2854 104.153V78.6351ZM57.6245 71.6756C55.8201 71.6756 54.0896 72.4089 52.8137 73.714C51.5378 75.0192 50.821 76.7893 50.821 78.6351V104.153C50.821 110.306 53.2103 116.206 57.4634 120.557C61.7164 124.907 67.4847 127.351 73.4994 127.351C79.514 127.351 85.2824 124.907 89.5354 120.557C93.7884 116.206 96.1777 110.306 96.1777 104.153V78.6351C96.1777 76.7893 95.4609 75.0192 94.185 73.714C92.9091 72.4089 91.1786 71.6756 89.3742 71.6756H57.6245ZM42.1579 74.9558C41.8851 76.1623 41.7482 77.3968 41.7497 78.6351V79.8739L19.5793 85.9518C17.8381 86.4302 16.3537 87.5961 15.4522 89.1933C14.5508 90.7905 14.3059 92.6884 14.7715 94.4702L18.8808 110.157C19.719 113.359 21.2183 116.339 23.2776 118.899C25.3368 121.458 27.9083 123.536 30.8189 124.993C33.7294 126.45 36.9114 127.252 40.1504 127.345C43.3895 127.438 46.6105 126.82 49.5964 125.533C50.6638 126.779 51.8174 127.937 53.0571 129.008C49.4454 130.875 45.472 131.894 41.4264 131.992C37.3807 132.09 33.3647 131.264 29.6706 129.574C25.9766 127.883 22.6976 125.372 20.0723 122.221C17.447 119.071 15.5416 115.362 14.4948 111.363L10.3901 95.6718C10.0046 94.2004 9.90624 92.6657 10.1006 91.1554C10.295 89.6451 10.7783 88.1887 11.523 86.8695C12.2676 85.5503 13.259 84.394 14.4406 83.4668C15.6221 82.5395 16.9706 81.8594 18.4091 81.4653L42.1579 74.9558ZM93.9416 129.008C95.5835 129.852 97.3283 130.531 99.1758 131.044C106.147 132.955 113.575 131.954 119.825 128.262C126.076 124.57 130.636 118.49 132.504 111.358L136.613 95.6765C137.392 92.7054 136.985 89.5396 135.482 86.8755C133.979 84.2113 131.503 82.2669 128.599 81.4699L104.841 74.9558C105.113 76.1405 105.249 77.3669 105.249 78.6351V79.8739L127.424 85.9518C129.165 86.4302 130.65 87.5961 131.551 89.1933C132.453 90.7905 132.697 92.6884 132.232 94.4702L128.127 110.157C127.289 113.36 125.79 116.342 123.73 118.902C121.67 121.462 119.097 123.541 116.186 124.998C113.274 126.455 110.091 127.256 106.851 127.349C103.611 127.441 100.389 126.822 97.4024 125.533C96.335 126.776 95.1814 127.937 93.9416 129.008Z" fill="#07758B"/>
<path d="M73.4994 20.6396C69.2891 20.6396 65.2513 22.3505 62.2742 25.3958C59.2971 28.4412 57.6245 32.5716 57.6245 36.8784C57.6245 41.1851 59.2971 45.3155 62.2742 48.3609C65.2513 51.4062 69.2891 53.1171 73.4994 53.1171C77.7096 53.1171 81.7475 51.4062 84.7246 48.3609C87.7017 45.3155 89.3742 41.1851 89.3742 36.8784C89.3742 32.5716 87.7017 28.4412 84.7246 25.3958C81.7475 22.3505 77.7096 20.6396 73.4994 20.6396ZM53.0889 36.8784C53.0889 31.3411 55.2392 26.0306 59.067 22.1151C62.8947 18.1997 68.0862 16 73.4994 16C78.9126 16 84.1041 18.1997 87.9318 22.1151C91.7595 26.0306 93.9099 31.3411 93.9099 36.8784C93.9099 42.4156 91.7595 47.7261 87.9318 51.6416C84.1041 55.557 78.9126 57.7567 73.4994 57.7567C68.0862 57.7567 62.8947 55.557 59.067 51.6416C55.2392 47.7261 53.0889 42.4156 53.0889 36.8784ZM28.1427 34.5585C24.5339 34.5585 21.0729 36.025 18.5211 38.6353C15.9693 41.2456 14.5357 44.7859 14.5357 48.4774C14.5357 52.169 15.9693 55.7093 18.5211 58.3196C21.0729 60.9299 24.5339 62.3964 28.1427 62.3964C31.7515 62.3964 35.2125 60.9299 37.7643 58.3196C40.3161 55.7093 41.7497 52.169 41.7497 48.4774C41.7497 44.7859 40.3161 41.2456 37.7643 38.6353C35.2125 36.025 31.7515 34.5585 28.1427 34.5585ZM10 48.4774C10 43.5554 11.9115 38.835 15.3139 35.3546C18.7163 31.8742 23.3309 29.9189 28.1427 29.9189C32.9544 29.9189 37.5691 31.8742 40.9715 35.3546C44.3739 38.835 46.2854 43.5554 46.2854 48.4774C46.2854 53.3995 44.3739 58.1199 40.9715 61.6003C37.5691 65.0807 32.9544 67.036 28.1427 67.036C23.3309 67.036 18.7163 65.0807 15.3139 61.6003C11.9115 58.1199 10 53.3995 10 48.4774ZM105.249 48.4774C105.249 44.7859 106.683 41.2456 109.234 38.6353C111.786 36.025 115.247 34.5585 118.856 34.5585C122.465 34.5585 125.926 36.025 128.478 38.6353C131.029 41.2456 132.463 44.7859 132.463 48.4774C132.463 52.169 131.029 55.7093 128.478 58.3196C125.926 60.9299 122.465 62.3964 118.856 62.3964C115.247 62.3964 111.786 60.9299 109.234 58.3196C106.683 55.7093 105.249 52.169 105.249 48.4774ZM118.856 29.9189C114.044 29.9189 109.43 31.8742 106.027 35.3546C102.625 38.835 100.713 43.5554 100.713 48.4774C100.713 53.3995 102.625 58.1199 106.027 61.6003C109.43 65.0807 114.044 67.036 118.856 67.036C123.668 67.036 128.282 65.0807 131.685 61.6003C135.087 58.1199 136.999 53.3995 136.999 48.4774C136.999 43.5554 135.087 38.835 131.685 35.3546C128.282 31.8742 123.668 29.9189 118.856 29.9189ZM46.2854 78.6351C46.2854 75.5588 47.48 72.6085 49.6065 70.4333C51.733 68.258 54.6172 67.036 57.6245 67.036H89.3742C92.3815 67.036 95.2657 68.258 97.3922 70.4333C99.5187 72.6085 100.713 75.5588 100.713 78.6351V104.153C100.713 111.536 97.8462 118.617 92.7426 123.837C87.639 129.058 80.717 131.991 73.4994 131.991C66.2818 131.991 59.3598 129.058 54.2562 123.837C49.1525 118.617 46.2854 111.536 46.2854 104.153V78.6351ZM57.6245 71.6756C55.8201 71.6756 54.0896 72.4089 52.8137 73.714C51.5378 75.0192 50.821 76.7893 50.821 78.6351V104.153C50.821 110.306 53.2103 116.206 57.4634 120.557C61.7164 124.907 67.4847 127.351 73.4994 127.351C79.514 127.351 85.2824 124.907 89.5354 120.557C93.7884 116.206 96.1777 110.306 96.1777 104.153V78.6351C96.1777 76.7893 95.4609 75.0192 94.185 73.714C92.9091 72.4089 91.1786 71.6756 89.3742 71.6756H57.6245ZM42.1579 74.9558C41.8851 76.1623 41.7482 77.3968 41.7497 78.6351V79.8739L19.5793 85.9518C17.8381 86.4302 16.3537 87.5961 15.4522 89.1933C14.5508 90.7905 14.3059 92.6884 14.7715 94.4702L18.8808 110.157C19.719 113.359 21.2183 116.339 23.2776 118.899C25.3368 121.458 27.9083 123.536 30.8189 124.993C33.7294 126.45 36.9114 127.252 40.1504 127.345C43.3895 127.438 46.6105 126.82 49.5964 125.533C50.6638 126.779 51.8174 127.937 53.0571 129.008C49.4454 130.875 45.472 131.894 41.4264 131.992C37.3807 132.09 33.3647 131.264 29.6706 129.574C25.9766 127.883 22.6976 125.372 20.0723 122.221C17.447 119.071 15.5416 115.362 14.4948 111.363L10.3901 95.6718C10.0046 94.2004 9.90624 92.6657 10.1006 91.1554C10.295 89.6451 10.7783 88.1887 11.523 86.8695C12.2676 85.5503 13.259 84.394 14.4406 83.4668C15.6221 82.5395 16.9706 81.8594 18.4091 81.4653L42.1579 74.9558ZM93.9416 129.008C95.5835 129.852 97.3283 130.531 99.1758 131.044C106.147 132.955 113.575 131.954 119.825 128.262C126.076 124.57 130.636 118.49 132.504 111.358L136.613 95.6765C137.392 92.7054 136.985 89.5396 135.482 86.8755C133.979 84.2113 131.503 82.2669 128.599 81.4699L104.841 74.9558C105.113 76.1405 105.249 77.3669 105.249 78.6351V79.8739L127.424 85.9518C129.165 86.4302 130.65 87.5961 131.551 89.1933C132.453 90.7905 132.697 92.6884 132.232 94.4702L128.127 110.157C127.289 113.36 125.79 116.342 123.73 118.902C121.67 121.462 119.097 123.541 116.186 124.998C113.274 126.455 110.091 127.256 106.851 127.349C103.611 127.441 100.389 126.822 97.4024 125.533C96.335 126.776 95.1814 127.937 93.9416 129.008Z" stroke="#07758B" stroke-width="2" mask="url(#path-1-outside-1_1669_10688)"/>
</svg>
