<svg width="148" height="148" viewBox="0 0 148 148" fill="none" xmlns="http://www.w3.org/2000/svg">
<path d="M120.797 24.5L121.166 24.5088C123.005 24.5996 124.752 25.3669 126.061 26.6699C127.457 28.0599 128.241 29.9463 128.241 31.9131V50.2754C131.128 52.8835 133.443 56.0579 135.036 59.6016C136.661 63.214 137.5 67.1279 137.5 71.0859C137.5 75.0438 136.661 78.9571 135.036 82.5693C133.443 86.1128 131.127 89.2865 128.241 91.8945V128.691C128.242 129.184 128.112 129.669 127.865 130.096C127.618 130.523 127.263 130.878 126.835 131.124C126.407 131.37 125.922 131.5 125.428 131.5C124.934 131.5 124.449 131.371 124.021 131.125V131.124L109.223 122.705L94.4248 131.124C93.9968 131.37 93.5115 131.5 93.0176 131.5C92.5237 131.5 92.0381 131.37 91.6104 131.124C91.1825 130.878 90.8271 130.523 90.5801 130.096C90.3332 129.669 90.2034 129.184 90.2041 128.691V113.062H18.9443C16.9707 113.062 15.0779 112.281 13.6816 110.892C12.2853 109.502 11.5 107.616 11.5 105.649V31.9131C11.5 29.9463 12.2853 28.0599 13.6816 26.6699C15.0779 25.2803 16.9709 24.5 18.9443 24.5H120.797ZM122.612 95.8652C118.503 98.0756 113.902 99.2373 109.223 99.2373C104.543 99.2373 99.943 98.0754 95.834 95.8652V123.863L107.818 117.042C108.246 116.797 108.73 116.668 109.223 116.668C109.716 116.668 110.201 116.797 110.628 117.042L122.612 123.863V95.8652ZM18.9443 30.1084C18.4623 30.1084 18.0003 30.2991 17.6602 30.6377C17.3201 30.9762 17.1299 31.4353 17.1299 31.9131V105.649C17.1299 106.127 17.3201 106.586 17.6602 106.925C18.0003 107.263 18.4623 107.454 18.9443 107.454H90.2041V91.8936C85.1318 87.2517 81.9328 80.9243 81.2158 74.0967C80.4911 67.1946 82.353 60.2693 86.4434 54.6504C90.5336 49.0315 96.5641 45.1147 103.377 43.6514C109.912 42.2478 116.725 43.1972 122.612 46.3125V31.9131C122.612 31.4353 122.421 30.9762 122.081 30.6377C121.741 30.2991 121.279 30.1084 120.797 30.1084H18.9443ZM109.223 48.543C104.743 48.543 100.364 49.8655 96.6396 52.3428C92.9151 54.8201 90.0118 58.3411 88.2979 62.46C86.5841 66.5787 86.1361 71.1112 87.0098 75.4834C87.8835 79.8555 90.0401 83.8718 93.207 87.0244C96.3743 90.1772 100.41 92.3253 104.804 93.1953C109.197 94.0653 113.752 93.6185 117.891 91.9121C122.029 90.2056 125.566 87.3155 128.055 83.6084C130.543 79.9015 131.871 75.5438 131.871 71.0859C131.871 65.108 129.485 59.3742 125.238 55.1465C120.991 50.9186 115.23 48.543 109.223 48.543ZM65.2412 75.1943C65.9869 75.1944 66.7024 75.4891 67.2305 76.0146C67.7585 76.5403 68.0556 77.2537 68.0557 77.998C68.0557 78.7425 67.7586 79.4567 67.2305 79.9824C66.7025 80.5079 65.9868 80.8027 65.2412 80.8027H37.4629C36.7173 80.8027 36.0016 80.5079 35.4736 79.9824C34.9455 79.4567 34.6484 78.7425 34.6484 77.998C34.6485 77.2537 34.9456 76.5403 35.4736 76.0146C36.0016 75.4891 36.7172 75.1944 37.4629 75.1943H65.2412ZM65.2412 56.7598C65.9869 56.7598 66.7025 57.0546 67.2305 57.5801C67.7586 58.1058 68.0557 58.82 68.0557 59.5645C68.0556 60.3088 67.7585 61.0222 67.2305 61.5479C66.7024 62.0734 65.9869 62.3681 65.2412 62.3682H37.4629C36.7172 62.3681 36.0016 62.0734 35.4736 61.5479C34.9456 61.0222 34.6485 60.3088 34.6484 59.5645C34.6484 58.82 34.9455 58.1058 35.4736 57.5801C36.0016 57.0546 36.7173 56.7598 37.4629 56.7598H65.2412Z" fill="#07758B" stroke="#07758B"/>
</svg>
