<svg width="238" height="225" viewBox="0 0 238 225" fill="none" xmlns="http://www.w3.org/2000/svg">
<path d="M149.347 89.7443L118.713 177.337L88.0781 89.7443L118.713 2.13867L149.347 89.7443Z" stroke="black" stroke-width="1.41164" stroke-miterlimit="10"/>
<path d="M194.615 138.08L124.148 182.424L151.619 103.828L222.086 59.498L194.615 138.08Z" stroke="black" stroke-width="1.41164" stroke-miterlimit="10"/>
<path d="M186.668 193.567L129.203 187.173L178.125 156.365L235.577 162.746L186.668 193.567Z" stroke="black" stroke-width="1.41164" stroke-miterlimit="10"/>
<path d="M157.238 219.371L131.93 194.156L167.436 198.094L192.758 223.309L157.238 219.371Z" stroke="black" stroke-width="1.41164" stroke-miterlimit="10"/>
<path d="M43.0703 138.08L113.537 182.424L86.0522 103.828L15.5859 59.498L43.0703 138.08Z" stroke="black" stroke-width="1.41164" stroke-miterlimit="10"/>
<path d="M51.0079 193.567L108.459 187.173L59.5509 156.365L2.08594 162.746L51.0079 193.567Z" stroke="black" stroke-width="1.41164" stroke-miterlimit="10"/>
<path d="M80.4186 219.371L105.741 194.156L70.2204 198.094L44.8984 223.309L80.4186 219.371Z" stroke="black" stroke-width="1.41164" stroke-miterlimit="10"/>
</svg>
