<svg width="195" height="160" viewBox="0 0 195 160" fill="none" xmlns="http://www.w3.org/2000/svg">
<path d="M194.681 37.8702V118.553L194.65 118.584C182.04 131.666 166.915 142.08 150.192 149.185C133.469 156.29 115.485 159.951 97.3147 159.948C79.1448 159.945 61.162 156.278 44.4414 149.166C27.7208 142.055 12.6058 131.645 0 118.559V43.0329L8.17229 54.1309V113.536L10.8778 113.465L13.5179 67.3945L19.0188 102.727L23.0027 97.3221L27.036 102.634L29.8314 67.441L35.1892 113.261C35.1967 113.324 35.2274 113.383 35.2755 113.426C35.3236 113.469 35.3858 113.493 35.4502 113.493H37.9196V105.432L40.5506 102.634V97.3438L43.3271 94.4987V51.3165L45.9581 43.1568L48.7317 24.2807L51.3658 43.2529L54.186 51.3383V94.5704L56.7954 97.2727V102.681L59.5226 105.383V113.472H62.2032V99.9779L64.8342 97.3216V62.1294L68.9606 45.9556L73.0405 62.1759V97.3685L75.7181 100.025V113.518H78.4235V105.289L78.47 75.647L82.5251 70.1926L86.5088 75.647L86.5554 113.492H89.2117V16.4251L89.2335 16.3228L89.2924 16.2358C89.6453 16.3146 90.0124 16.3037 90.3601 16.2042C90.7078 16.1047 91.0251 15.9199 91.283 15.6663C91.5409 15.4128 91.7312 15.0987 91.8365 14.7527C91.9419 14.4067 91.959 14.0399 91.8862 13.6856C91.9364 13.6379 92.003 13.6113 92.0723 13.6112H96.8473V0H97.8929V13.5739H102.655C102.639 13.9976 102.725 14.419 102.905 14.8028C103.086 15.1866 103.355 15.5216 103.692 15.7799C104.182 16.105 104.774 16.2416 105.358 16.1645C105.405 16.2151 105.431 16.2814 105.432 16.3506V113.458H108.137V58.0857C108.138 57.6766 108.252 57.2758 108.467 56.9282C108.683 56.5807 108.991 56.3003 109.358 56.1186L118.95 51.3634L128.542 56.1186C128.909 56.3003 129.217 56.5807 129.433 56.9282C129.648 57.2758 129.763 57.6766 129.763 58.0857V113.493H132.468V51.3634L143.357 49.1863C143.675 49.1226 144.004 49.1305 144.319 49.2091C144.634 49.2878 144.928 49.4355 145.179 49.6415C145.431 49.8474 145.633 50.1065 145.772 50.4002C145.911 50.6938 145.983 51.0146 145.983 51.3394V113.493H148.688V84.6666C148.688 84.3771 148.745 84.0905 148.856 83.8232C148.967 83.5558 149.13 83.3129 149.335 83.1083L150.257 82.1873C151.49 80.954 151.353 81.0179 153.083 81.0179H159.467L164.909 64.8316L170.313 81.052H177.665C177.905 81.052 178.143 81.1001 178.364 81.1934C178.585 81.2868 178.785 81.4234 178.953 81.5954L180.455 83.138C180.863 83.5571 181.092 84.1189 181.092 84.7039V113.458H183.76V45.9431L194.681 37.8702Z" fill="black"/>
</svg>
