<svg width="37" height="34" viewBox="0 0 37 34" fill="none" xmlns="http://www.w3.org/2000/svg">
<path d="M16.4925 10.2007L10 16.727L16.4925 23.2532C16.5511 23.3302 16.6256 23.3937 16.7109 23.4394C16.7963 23.4852 16.8904 23.512 16.987 23.5182C17.0836 23.5243 17.1804 23.5097 17.2708 23.4752C17.3612 23.4407 17.4432 23.3872 17.5111 23.3182C17.5791 23.2493 17.6314 23.1666 17.6646 23.0757C17.6978 22.9848 17.7111 22.8878 17.7035 22.7913C17.696 22.6948 17.6678 22.6011 17.6209 22.5164C17.574 22.4318 17.5094 22.3582 17.4316 22.3006L12.574 17.4026H25.4982C25.6774 17.4026 25.8492 17.3314 25.9759 17.2047C26.1026 17.078 26.1738 16.9061 26.1738 16.727C26.1738 16.5478 26.1026 16.3759 25.9759 16.2492C25.8492 16.1225 25.6774 16.0514 25.4982 16.0514H12.574L17.4316 11.1533C17.5579 11.0261 17.6285 10.8539 17.6279 10.6746C17.6272 10.4953 17.5554 10.3236 17.4282 10.1973C17.301 10.071 17.1288 10.0004 16.9495 10.001C16.7702 10.0016 16.5986 10.0735 16.4722 10.2007H16.4925Z" fill="#6D6D6D"/>
</svg>
