<svg width="37" height="34" viewBox="0 0 37 34" fill="none" xmlns="http://www.w3.org/2000/svg">
<path d="M19.6794 10.2007L26.1719 16.727L19.6794 23.2532C19.6207 23.3302 19.5462 23.3937 19.4609 23.4394C19.3756 23.4852 19.2815 23.512 19.1849 23.5182C19.0883 23.5243 18.9915 23.5097 18.9011 23.4752C18.8107 23.4407 18.7287 23.3872 18.6608 23.3182C18.5928 23.2493 18.5405 23.1666 18.5073 23.0757C18.4741 22.9848 18.4608 22.8878 18.4683 22.7913C18.4759 22.6948 18.5041 22.6011 18.551 22.5164C18.5979 22.4318 18.6625 22.3582 18.7403 22.3006L23.5978 17.4026H10.6736C10.4945 17.4026 10.3226 17.3314 10.1959 17.2047C10.0692 17.078 9.99805 16.9061 9.99805 16.727C9.99805 16.5478 10.0692 16.3759 10.1959 16.2492C10.3226 16.1225 10.4945 16.0514 10.6736 16.0514H23.5978L18.7403 11.1533C18.614 11.0261 18.5434 10.8539 18.544 10.6746C18.5446 10.4953 18.6165 10.3236 18.7437 10.1973C18.8709 10.071 19.0431 10.0004 19.2224 10.001C19.4016 10.0016 19.5733 10.0735 19.6996 10.2007H19.6794Z" fill="#6D6D6D"/>
</svg>
