<svg width="423" height="408" viewBox="0 0 423 408" fill="none" xmlns="http://www.w3.org/2000/svg">
<path d="M211.32 406.746C327.438 406.746 421.57 315.932 421.57 203.908C421.57 91.8839 327.438 1.07031 211.32 1.07031C95.2024 1.07031 1.07031 91.8839 1.07031 203.908C1.07031 315.932 95.2024 406.746 211.32 406.746Z" fill="white" stroke="#010101" stroke-width="2.14136" stroke-miterlimit="10"/>
<path d="M254.137 156.499L211.196 274.95L168.256 156.499L211.196 38.043L254.137 156.499Z" fill="white" stroke="#010101" stroke-width="2.14136" stroke-miterlimit="10"/>
<path d="M317.521 221.92L218.748 281.869L257.258 175.598L356.036 115.648L317.521 221.92Z" fill="white" stroke="#010101" stroke-width="2.14136" stroke-miterlimit="10"/>
<path d="M306.403 296.895L225.871 288.252L294.43 246.59L374.962 255.228L306.403 296.895Z" fill="white" stroke="#010101" stroke-width="2.14136" stroke-miterlimit="10"/>
<path d="M265.198 331.806L229.711 297.703L279.492 303.031L314.984 337.134L265.198 331.806Z" fill="white" stroke="#010101" stroke-width="2.14136" stroke-miterlimit="10"/>
<path d="M105.12 221.92L203.897 281.869L165.382 175.598L66.6094 115.648L105.12 221.92Z" fill="white" stroke="#010101" stroke-width="2.14136" stroke-miterlimit="10"/>
<path d="M116.242 296.895L196.774 288.252L128.214 246.59L47.6777 255.228L116.242 296.895Z" fill="white" stroke="#010101" stroke-width="2.14136" stroke-miterlimit="10"/>
<path d="M157.44 331.806L192.932 297.703L143.146 303.031L107.654 337.134L157.44 331.806Z" fill="white" stroke="#010101" stroke-width="2.14136" stroke-miterlimit="10"/>
<path d="M348.486 220.46V329.564L348.442 329.605L348.433 329.618C330.758 347.308 309.566 361.377 286.126 370.985C262.686 380.594 237.478 385.544 212.01 385.54C186.542 385.535 161.336 380.577 137.899 370.96C114.463 361.344 93.2766 347.267 75.6074 329.572V227.441L87.0622 242.449V322.78L90.8543 322.683L94.5551 260.384L102.266 308.162L107.849 300.854L113.503 308.037L117.421 260.447L124.931 322.407C124.942 322.493 124.985 322.573 125.052 322.631C125.12 322.689 125.207 322.721 125.297 322.721H128.759V311.821L132.446 308.037V300.883L136.339 297.036V238.643L140.026 227.609L143.914 202.084L147.606 227.739L151.559 238.673V297.132L155.217 300.787V308.099L159.039 311.754V322.691H162.797V304.445L166.484 300.854V253.264L172.268 231.393L177.987 253.327V300.917L181.74 304.508V322.754H185.532V311.628L185.597 271.544L191.281 264.169L196.865 271.544L196.931 322.721H200.653V191.461C200.655 191.365 200.695 191.273 200.766 191.205C201.261 191.312 201.775 191.297 202.263 191.162C202.75 191.028 203.195 190.778 203.556 190.435C203.918 190.092 204.185 189.667 204.332 189.199C204.48 188.732 204.504 188.235 204.402 187.756C204.472 187.692 204.566 187.656 204.663 187.656H211.356V169.25H212.821V187.605H219.497C219.474 188.178 219.594 188.748 219.847 189.267C220.1 189.786 220.478 190.239 220.949 190.588C221.637 191.028 222.466 191.213 223.284 191.108C223.351 191.177 223.388 191.267 223.389 191.36V322.675H227.181V247.796C227.181 247.243 227.341 246.701 227.643 246.231C227.945 245.761 228.378 245.382 228.891 245.136L242.336 238.706L255.781 245.136C256.295 245.382 256.727 245.761 257.029 246.231C257.331 246.701 257.492 247.243 257.492 247.796V322.721H261.284V238.706L276.546 235.762C276.993 235.676 277.453 235.687 277.895 235.793C278.337 235.9 278.749 236.099 279.101 236.378C279.453 236.656 279.737 237.007 279.931 237.404C280.126 237.801 280.227 238.235 280.227 238.674V322.721H284.019V283.74C284.019 283.349 284.099 282.962 284.255 282.6C284.41 282.238 284.638 281.91 284.925 281.633L286.217 280.388C287.946 278.72 287.754 278.807 290.179 278.807H299.127L306.755 256.919L314.33 278.853H324.635C324.971 278.853 325.304 278.918 325.614 279.044C325.924 279.17 326.205 279.355 326.44 279.588L328.546 281.674C329.118 282.24 329.438 283 329.438 283.791V322.675H333.178V231.377L348.486 220.46Z" fill="#1E1E1C"/>
</svg>
