<svg width="24" height="24" viewBox="0 0 24 24" fill="none" xmlns="http://www.w3.org/2000/svg">
<path d="M15.7285 3.88438C17.1625 2.44438 19.2605 2.41438 20.4215 3.58038C21.5855 4.74838 21.5545 6.86038 20.1185 8.30038L17.6955 10.7334C17.559 10.875 17.4837 11.0646 17.4857 11.2612C17.4877 11.4579 17.5668 11.6459 17.7061 11.7848C17.8453 11.9236 18.0335 12.0022 18.2302 12.0037C18.4269 12.0051 18.6162 11.9292 18.7575 11.7924L21.1815 9.35938C23.0925 7.44038 23.3325 4.37738 21.4845 2.52138C19.6345 0.664382 16.5775 0.906382 14.6645 2.82538L9.81846 7.69238C7.90746 9.61138 7.66746 12.6744 9.51546 14.5294C9.58448 14.6012 9.6671 14.6585 9.75851 14.698C9.84991 14.7375 9.94827 14.7584 10.0478 14.7595C10.1474 14.7606 10.2462 14.7418 10.3385 14.7043C10.4307 14.6668 10.5146 14.6114 10.5851 14.5411C10.6557 14.4709 10.7116 14.3873 10.7495 14.2952C10.7875 14.2031 10.8067 14.1044 10.8061 14.0048C10.8054 13.9053 10.785 13.8068 10.7459 13.7152C10.7068 13.6236 10.6499 13.5407 10.5785 13.4714C9.41446 12.3034 9.44646 10.1914 10.8815 8.75138L15.7285 3.88438Z" fill="black"/>
<path d="M14.4855 9.4706C14.3449 9.32963 14.1541 9.25028 13.955 9.25C13.7559 9.24972 13.5649 9.32853 13.424 9.4691C13.283 9.60966 13.2036 9.80046 13.2034 9.99953C13.2031 10.1986 13.2819 10.3896 13.4225 10.5306C14.5865 11.6986 14.5555 13.8096 13.1195 15.2506L8.27246 20.1166C6.83746 21.5566 4.73946 21.5866 3.57846 20.4206C2.41446 19.2526 2.44646 17.1406 3.88146 15.7006L6.30546 13.2676C6.37499 13.1978 6.4301 13.115 6.46763 13.0239C6.50516 12.9328 6.52439 12.8352 6.5242 12.7367C6.52401 12.6382 6.50442 12.5406 6.46655 12.4497C6.42868 12.3587 6.37326 12.2761 6.30346 12.2066C6.23366 12.1371 6.15085 12.082 6.05976 12.0444C5.96866 12.0069 5.87107 11.9877 5.77254 11.9879C5.67402 11.988 5.5765 12.0076 5.48555 12.0455C5.3946 12.0834 5.31199 12.1388 5.24246 12.2086L2.81846 14.6416C0.907459 16.5616 0.667459 19.6236 2.51546 21.4796C4.36546 23.3376 7.42246 23.0946 9.33546 21.1756L14.1825 16.3086C16.0935 14.3906 16.3335 11.3256 14.4855 9.4706Z" fill="black"/>
</svg>
