<svg preserveAspectRatio="none" width="100%" height="100%" overflow="visible" style="display: block;" viewBox="0 0 159.051 26.1639" fill="none" xmlns="http://www.w3.org/2000/svg">
<g id="Group 1321322148">
<path id="Vector" d="M2.58128 2.30699H10.9811V3.48254L8.34227 3.79822C8.28637 6.20685 8.28637 8.67138 8.28637 11.1672V15.6392C8.37737 17.7307 8.24287 19.8259 7.88521 21.8885C7.644 23.1266 6.96803 24.2376 5.97938 25.021C4.99073 25.8043 3.75457 26.2083 2.49414 26.16C1.40572 26.16 0.287724 25.846 0 24.7559C0.0188037 24.5436 0.0802128 24.3372 0.180558 24.1492C0.280903 23.9611 0.418122 23.7952 0.584022 23.6614C0.749922 23.5276 0.9411 23.4286 1.14613 23.3703C1.35115 23.312 1.56581 23.2956 1.7773 23.3222C2.57629 23.3572 3.33753 23.6721 3.9278 24.2117L4.64464 24.7838C5.07138 24.3155 5.39215 23.7607 5.58508 23.1572C5.77802 22.5538 5.83859 21.9158 5.76265 21.2868C5.76265 19.567 5.61955 16.6421 5.50453 3.79827L2.58128 3.4826V2.30699Z" fill="var(--fill-0, white)"/>
<path id="Vector_2" d="M15.9074 11.1951C15.9074 8.72893 15.9074 6.26439 15.8499 3.79822L13.2127 3.48254V2.30699H21.67C27.1745 2.30699 30.9593 5.69059 30.9593 11.9119C30.9593 18.1037 26.7158 21.4873 21.1258 21.4873H13.2127V20.3117L15.8499 19.9961C15.9074 17.5595 15.9074 15.0374 15.9074 12.2556V11.1951ZM18.6892 20.1391H20.9531C25.3691 20.1391 27.8337 17.1287 27.8337 11.9119C27.8337 6.52251 25.3692 3.62558 21.2112 3.62558H18.6892C18.6317 6.09176 18.6317 8.64343 18.6317 11.1951V12.2556C18.6316 15.0654 18.6317 17.617 18.6892 20.1391Z" fill="var(--fill-0, white)"/>
<path id="Vector_3" d="M33.3575 8.78319L32.8133 8.00875C34.0533 7.14774 35.0268 5.95605 35.6231 4.56919L34.7912 3.82439C34.452 3.58249 34.1743 3.2645 33.9801 2.8959C33.786 2.52731 33.6809 2.11836 33.6732 1.70184C33.6469 1.47329 33.6725 1.24174 33.7482 1.0245C33.8239 0.807251 33.9477 0.609919 34.1104 0.447243C34.2731 0.284567 34.4704 0.160756 34.6877 0.0850485C34.9049 0.00934117 35.1365 -0.016298 35.365 0.0100419C35.6481 -0.00179634 35.9306 0.0428447 36.1963 0.14136C36.4619 0.239875 36.7052 0.390286 36.9121 0.583834C37.1775 1.22967 37.3143 1.92106 37.3149 2.61928C37.2054 3.89081 36.7878 5.11654 36.0983 6.19049C35.4088 7.26444 34.4681 8.15432 33.3575 8.78319Z" fill="var(--fill-0, white)"/>
<path id="Vector_4" d="M37.541 20.7693L37.4275 17.6159H39.0043L39.5485 20.11C40.279 20.4323 41.0718 20.589 41.87 20.5687C44.0501 20.5687 45.0809 19.6792 45.0809 18.3902C45.0809 17.1571 44.2211 16.5258 42.4158 15.8961L41.0972 15.4079C39.0043 14.6334 37.6281 13.4876 37.6281 11.5376C37.6281 9.44466 39.4054 7.49637 42.6164 7.49637C44.0391 7.49409 45.4324 7.90163 46.6297 8.67027L46.5146 11.5952H45.0234L44.5663 9.30162C43.9539 8.98613 43.2757 8.81942 42.5868 8.81497C40.8391 8.81497 39.9217 9.58773 39.9217 10.7632C39.9217 12.0259 40.6089 12.5126 42.5589 13.2294L43.4467 13.5451C46.314 14.6056 47.4041 15.9537 47.4041 17.759C47.4041 19.9374 45.5118 21.8594 41.8141 21.8594C40.3206 21.8624 38.8506 21.4874 37.541 20.7693Z" fill="var(--fill-0, white)"/>
<path id="Vector_5" d="M56.5409 2.30699H64.9408V3.48254L62.302 3.79822C62.2461 6.20685 62.2461 8.67138 62.2461 11.1672V15.6392C62.337 17.7307 62.2025 19.8258 61.8449 21.8884C61.6037 23.1265 60.9277 24.2375 59.9391 25.0208C58.9504 25.8042 57.7143 26.2082 56.4539 26.1599C55.3655 26.1599 54.2474 25.8459 53.9597 24.7558C53.9785 24.5435 54.04 24.3371 54.1403 24.1491C54.2406 23.961 54.3779 23.7951 54.5438 23.6613C54.7097 23.5275 54.9008 23.4285 55.1059 23.3702C55.3109 23.3119 55.5256 23.2956 55.737 23.3221C56.536 23.3571 57.2973 23.672 57.8875 24.2116L58.6044 24.7837C59.0311 24.3154 59.3519 23.7606 59.5448 23.1572C59.7378 22.5537 59.7983 21.9157 59.7224 21.2867C59.7224 19.5669 59.5793 16.642 59.4643 3.79818L56.541 3.48251L56.5409 2.30699Z" fill="var(--fill-0, white)"/>
<path id="Vector_6" d="M76.9191 19.881C80.1581 19.881 81.8219 18.0182 81.8219 12.9444V3.85576L78.897 3.48254V2.30699H85.7777V3.48254L83.2835 3.79822V13.6317C83.2835 19.6804 80.3587 21.9181 76.4325 21.9181C72.2745 21.9181 69.4647 19.6245 69.4647 14.263V11.1672C69.4647 8.70099 69.4647 6.23479 69.4072 3.77025L67.0281 3.48254V2.30699H75.1419V3.48254L72.217 3.8278C72.1594 6.23479 72.1594 8.67146 72.1594 11.1672V13.4311C72.1594 18.3339 73.9943 19.881 76.9191 19.881Z" fill="var(--fill-0, white)"/>
<path id="Vector_7" d="M99.4737 2.30699H106.382V3.48254L103.946 3.85576V21.6879H102.943L91.4751 6.06381V19.9106L94.5134 20.3117V21.4873H87.5752V20.3117L90.0118 19.9681V4.05634L89.7537 3.71272L87.7182 3.48254V2.30699H92.1342L102.484 16.527V3.85576L99.4736 3.48254L99.4737 2.30699Z" fill="var(--fill-0, white)"/>
<path id="Vector_8" d="M124.262 20.2244C122.336 21.3112 120.167 21.8932 117.956 21.9162C115.352 21.8216 112.887 20.7168 111.083 18.836C109.28 16.9551 108.28 14.446 108.295 11.8403C108.31 9.23461 109.339 6.73715 111.163 4.87713C112.988 3.0171 115.466 1.9407 118.071 1.87601C120.078 1.79698 122.069 2.26226 123.833 3.22256L123.947 7.40848H122.169L121.597 4.13996C120.599 3.58214 119.472 3.29587 118.329 3.30967C114.371 3.30967 111.419 6.40556 111.419 11.8805C111.419 17.357 114.113 20.4529 118.5 20.4529C119.551 20.4714 120.594 20.2761 121.568 19.8791V18.9617C121.568 17.2419 121.54 15.4942 121.51 13.7729L118.529 13.5148V12.3688H126.069V13.5148L124.32 13.6874C124.292 15.4071 124.262 17.1844 124.262 18.9617V20.2244Z" fill="var(--fill-0, white)"/>
<path id="Vector_9" d="M130.105 3.79822L127.466 3.48254V2.30699H135.58V3.48254L132.943 3.79822C132.885 6.26439 132.885 8.72893 132.885 11.1951V13.173C132.885 15.2084 132.885 17.617 132.943 20.0536H139.45L140.282 16.0979H142.032L141.744 21.4873H127.466V20.3117L130.105 19.9961C130.161 17.5315 130.161 15.0654 130.161 12.6287V11.1951C130.161 8.70095 130.161 6.20685 130.105 3.79822Z" fill="var(--fill-0, white)"/>
<path id="Vector_10" d="M146.694 11.1951C146.694 8.72893 146.694 6.26439 146.636 3.79822L143.999 3.48254V2.30699H158.277L158.477 7.38239H156.843L156.213 3.74067H149.476C149.418 6.17725 149.418 8.67138 149.418 11.0225H153.632L154.033 8.2998H155.353V15.0654H154.033L153.662 12.3706H149.418C149.418 15.238 149.418 17.6746 149.476 20.0536H156.785L157.417 16.3839H159.051L158.851 21.4873H143.999V20.3117L146.636 19.9961C146.694 17.5891 146.694 15.0933 146.694 12.5992L146.694 11.1951Z" fill="var(--fill-0, white)"/>
</g>
</svg>
