<svg preserveAspectRatio="none" width="100%" height="100%" overflow="visible" style="display: block;" viewBox="0 0 37.9641 37.9641" fill="none" xmlns="http://www.w3.org/2000/svg">
<g id="Group 1321322147">
<path id="Vector" d="M18.982 37.9009C29.4306 37.9009 37.9009 29.4306 37.9009 18.982C37.9009 8.53344 29.4306 0.0631758 18.982 0.0631758C8.53344 0.0631758 0.0631758 8.53344 0.0631758 18.982C0.0631758 29.4306 8.53344 37.9009 18.982 37.9009Z" fill="url(#paint0_linear_0_226)" stroke="var(--stroke-0, white)" stroke-width="0.126352" stroke-miterlimit="10"/>
<path id="Vector_2" d="M22.8338 14.5598L18.97 25.6074L15.1061 14.5598L18.97 3.51044L22.8338 14.5598Z" stroke="var(--stroke-0, white)" stroke-width="0.126352" stroke-miterlimit="10"/>
<path id="Vector_3" d="M28.5387 20.6561L19.6511 26.2489L23.1159 16.336L32.0035 10.7448L28.5387 20.6561Z" stroke="var(--stroke-0, white)" stroke-width="0.126352" stroke-miterlimit="10"/>
<path id="Vector_4" d="M27.5405 27.6537L20.2927 26.8473L26.463 22.9616L33.7091 23.7664L27.5405 27.6537Z" stroke="var(--stroke-0, white)" stroke-width="0.126352" stroke-miterlimit="10"/>
<path id="Vector_5" d="M23.8285 30.9075L20.6364 27.7272L25.1147 28.2239L28.3085 31.4042L23.8285 30.9075Z" stroke="var(--stroke-0, white)" stroke-width="0.126352" stroke-miterlimit="10"/>
<path id="Vector_6" d="M9.4281 20.6561L18.3157 26.2489L14.8492 16.336L5.96161 10.7448L9.4281 20.6561Z" stroke="var(--stroke-0, white)" stroke-width="0.126352" stroke-miterlimit="10"/>
<path id="Vector_7" d="M10.4249 27.6537L17.671 26.8473L11.5024 22.9616L4.25458 23.7664L10.4249 27.6537Z" stroke="var(--stroke-0, white)" stroke-width="0.126352" stroke-miterlimit="10"/>
<path id="Vector_8" d="M14.134 30.9075L17.3278 27.7272L12.8477 28.2239L9.654 31.4042L14.134 30.9075Z" stroke="var(--stroke-0, white)" stroke-width="0.126352" stroke-miterlimit="10"/>
<path id="Vector_9" d="M31.2591 20.6306V30.8068L31.2552 30.8107C29.6647 32.4606 27.7571 33.7741 25.6478 34.6703C23.5386 35.5664 21.2704 36.0281 18.9787 36.0277C16.687 36.0273 14.4189 35.5648 12.31 34.6679C10.2011 33.771 8.2947 32.458 6.70478 30.8076V21.2818L7.73551 22.6815V30.174L8.07674 30.165L8.40974 24.3544L9.10354 28.8107L9.60601 28.129L10.1147 28.7989L10.4673 24.3602L11.143 30.1393C11.144 30.1473 11.1479 30.1548 11.1539 30.1602C11.16 30.1656 11.1678 30.1686 11.176 30.1686H11.4874V29.1519L11.8193 28.7989V28.1318L12.1694 27.7729V22.3265L12.5013 21.2974L12.8511 18.9166L13.1833 21.3095L13.539 22.3293V27.782L13.8681 28.1228V28.8049L14.2121 29.1457V30.1659H14.5502V28.464L14.882 28.129V23.6903L15.4025 21.6504L15.9171 23.6962V28.1349L16.2548 28.4699V30.1718H16.596V29.1339L16.6019 25.3952L17.1133 24.7073L17.6158 25.3952L17.6216 30.1685H17.9567V17.9258L17.9594 17.9129L17.9668 17.9019C18.0114 17.9119 18.0577 17.9105 18.1015 17.898C18.1454 17.8854 18.1854 17.8621 18.2179 17.8301C18.2504 17.7981 18.2744 17.7585 18.2877 17.7149C18.301 17.6713 18.3032 17.625 18.294 17.5803C18.3003 17.5743 18.3087 17.5709 18.3175 17.5709H18.9197V15.8542H19.0516V17.5662H19.6523C19.6502 17.6197 19.6611 17.6728 19.6838 17.7212C19.7065 17.7696 19.7405 17.8119 19.783 17.8444C19.8448 17.8854 19.9195 17.9027 19.9931 17.893C19.999 17.8993 20.0024 17.9077 20.0025 17.9164V30.1642H20.3437V23.1803C20.3437 23.1287 20.3581 23.0781 20.3853 23.0343C20.4125 22.9905 20.4514 22.9551 20.4976 22.9322L21.7075 22.3324L22.9173 22.9322C22.9635 22.9551 23.0024 22.9905 23.0296 23.0343C23.0568 23.0781 23.0712 23.1287 23.0712 23.1803V30.1686H23.4124V22.3324L24.7858 22.0579C24.826 22.0498 24.8674 22.0508 24.9072 22.0607C24.9469 22.0707 24.984 22.0893 25.0156 22.1153C25.0473 22.1412 25.0729 22.1739 25.0904 22.211C25.1079 22.248 25.117 22.2884 25.117 22.3294V30.1686H25.4582V26.5328C25.4582 26.4963 25.4654 26.4602 25.4794 26.4265C25.4934 26.3927 25.5139 26.3621 25.5397 26.3363L25.656 26.2201C25.8116 26.0646 25.7943 26.0726 26.0125 26.0726H26.8177L27.504 24.0311L28.1857 26.0769H29.1129C29.1432 26.0769 29.1732 26.083 29.2011 26.0948C29.229 26.1065 29.2542 26.1238 29.2754 26.1455L29.4648 26.34C29.5163 26.3929 29.5451 26.4638 29.5451 26.5375V30.1642H29.8816V21.6488L31.2591 20.6306Z" fill="var(--fill-0, white)"/>
</g>
<defs>
<linearGradient id="paint0_linear_0_226" x1="18.982" y1="0.0631758" x2="18.982" y2="37.9009" gradientUnits="userSpaceOnUse">
<stop stop-color="#2B2C6C"/>
<stop offset="0.67039" stop-color="#1A1D39"/>
<stop offset="1" stop-color="#1A2441"/>
</linearGradient>
</defs>
</svg>
