<svg width="2000" height="1519" viewBox="0 0 2000 1519" fill="none" xmlns="http://www.w3.org/2000/svg">
<g filter="url(#filter0_f_1670_10609)">
<path d="M244.707 788.832C384.276 710.831 570.699 778.72 661.094 940.466C751.488 1102.21 932.405 1095.47 792.836 1173.47C653.267 1251.47 246.064 1384.68 155.669 1222.93C65.2743 1061.19 105.138 866.833 244.707 788.832Z" fill="url(#paint0_linear_1670_10609)" fill-opacity="0.2"/>
</g>
<g filter="url(#filter1_f_1670_10609)">
<path d="M592.761 1100.73C221.087 651.132 635.453 681.192 784.83 622.392C934.207 563.593 936.857 608.596 995.42 757.372C1053.95 906.074 1021.52 59.2348 1337.43 972.087C1337.72 972.932 1337.9 973.957 1337.89 974.851C1335.97 1528.77 651.274 1249.38 592.761 1100.73Z" fill="url(#paint1_linear_1670_10609)" fill-opacity="0.5"/>
</g>
<g filter="url(#filter2_f_1670_10609)">
<path d="M1854.96 702.88C1758.76 830.588 1538.94 888.105 1411.24 791.905C1283.53 695.705 1131.23 463.2 1227.43 335.493C1666.96 -140.216 1378.9 235.986 1506.61 332.186C1634.31 428.385 1951.16 575.172 1854.96 702.88Z" fill="url(#paint2_linear_1670_10609)" fill-opacity="0.2"/>
</g>
<g filter="url(#filter3_f_1670_10609)">
<path d="M501.901 633.162C481.601 474.569 598.808 279.912 757.401 259.612C915.993 239.313 1187.36 299.424 1207.66 458.017C1225.15 1105.46 1168.7 635.009 1010.11 655.309C851.517 675.608 522.2 791.754 501.901 633.162Z" fill="url(#paint3_linear_1670_10609)" fill-opacity="0.2"/>
</g>
<defs>
<filter id="filter0_f_1670_10609" x="7.25781" y="656.48" width="936.672" height="742.916" filterUnits="userSpaceOnUse" color-interpolation-filters="sRGB">
<feFlood flood-opacity="0" result="BackgroundImageFix"/>
<feBlend mode="normal" in="SourceGraphic" in2="BackgroundImageFix" result="shape"/>
<feGaussianBlur stdDeviation="50" result="effect1_foregroundBlur_1670_10609"/>
</filter>
<filter id="filter1_f_1670_10609" x="342.062" y="441.818" width="1095.83" height="962.438" filterUnits="userSpaceOnUse" color-interpolation-filters="sRGB">
<feFlood flood-opacity="0" result="BackgroundImageFix"/>
<feBlend mode="normal" in="SourceGraphic" in2="BackgroundImageFix" result="shape"/>
<feGaussianBlur stdDeviation="50" result="effect1_foregroundBlur_1670_10609"/>
</filter>
<filter id="filter2_f_1670_10609" x="1097.11" y="0" width="875.758" height="940.014" filterUnits="userSpaceOnUse" color-interpolation-filters="sRGB">
<feFlood flood-opacity="0" result="BackgroundImageFix"/>
<feBlend mode="normal" in="SourceGraphic" in2="BackgroundImageFix" result="shape"/>
<feGaussianBlur stdDeviation="50" result="effect1_foregroundBlur_1670_10609"/>
</filter>
<filter id="filter3_f_1670_10609" x="399.609" y="155.805" width="911.109" height="745.686" filterUnits="userSpaceOnUse" color-interpolation-filters="sRGB">
<feFlood flood-opacity="0" result="BackgroundImageFix"/>
<feBlend mode="normal" in="SourceGraphic" in2="BackgroundImageFix" result="shape"/>
<feGaussianBlur stdDeviation="50" result="effect1_foregroundBlur_1670_10609"/>
</filter>
<linearGradient id="paint0_linear_1670_10609" x1="-338.5" y1="1868.09" x2="423" y2="346.086" gradientUnits="userSpaceOnUse">
<stop stop-color="#4F709D"/>
<stop offset="0.218412" stop-color="#1EA8C3"/>
<stop offset="0.769192" stop-color="white"/>
</linearGradient>
<linearGradient id="paint1_linear_1670_10609" x1="1626.21" y1="1522.35" x2="701.286" y2="724.388" gradientUnits="userSpaceOnUse">
<stop stop-color="#B9E8FF"/>
<stop offset="1" stop-color="white"/>
</linearGradient>
<linearGradient id="paint2_linear_1670_10609" x1="1792.89" y1="293.266" x2="1221.57" y2="1063.35" gradientUnits="userSpaceOnUse">
<stop stop-color="#E3EFFF" stop-opacity="0"/>
<stop offset="0.5" stop-color="#92DDF3"/>
<stop offset="1" stop-color="#41CBE6"/>
</linearGradient>
<linearGradient id="paint3_linear_1670_10609" x1="1347.71" y1="1018.28" x2="806.723" y2="-3.11699" gradientUnits="userSpaceOnUse">
<stop stop-color="#E3EFFF" stop-opacity="0"/>
<stop offset="0.5" stop-color="white"/>
<stop offset="1" stop-color="#007B93"/>
</linearGradient>
</defs>
</svg>
