<svg width="2155" height="1500" viewBox="0 0 2155 1500" fill="none" xmlns="http://www.w3.org/2000/svg">
<g filter="url(#filter0_f_1670_10607)">
<path d="M569.416 559.848C827.827 561.019 1036.63 712.175 1035.79 897.464C1034.95 1082.75 1295.14 1166.31 1036.73 1165.14C778.317 1163.97 99.1623 1078.51 100.002 893.224C100.842 707.934 311.006 558.677 569.416 559.848Z" fill="url(#paint0_linear_1670_10607)" fill-opacity="0.2"/>
</g>
<g filter="url(#filter1_f_1670_10607)">
<path d="M1325.22 550.716C1557.8 1085.44 923.719 1465.72 875.913 1014.44C716.758 1029.72 726.562 985.733 711.289 826.578C696.015 667.423 622.289 566.577 257.871 480.753C476.291 365.077 1123.28 86.4492 1325.22 550.716Z" fill="url(#paint1_linear_1670_10607)" fill-opacity="0.5"/>
</g>
<g filter="url(#filter2_f_1670_10607)">
<path d="M1654.47 1319.01C1494.78 1311.14 1323.73 1161.57 1331.59 1001.88C1339.46 842.189 1446.29 585.596 1605.98 593.462C2246.44 689.938 2016.3 845.071 2008.43 1004.76C2000.57 1164.46 1814.16 1326.88 1654.47 1319.01Z" fill="url(#paint2_linear_1670_10607)" fill-opacity="0.2"/>
</g>
<g filter="url(#filter3_f_1670_10607)">
<path d="M1144.24 447.987C1259.85 312.994 1495.77 254.232 1617.21 358.23C1738.65 462.229 1869.28 711.777 1753.68 846.771C1238.48 1348.68 1322.5 1216.64 1201.06 1112.64C1079.62 1008.64 1028.64 582.98 1144.24 447.987Z" fill="url(#paint3_linear_1670_10607)" fill-opacity="0.2"/>
</g>
<defs>
<filter id="filter0_f_1670_10607" x="0" y="459.84" width="1251.15" height="805.309" filterUnits="userSpaceOnUse" color-interpolation-filters="sRGB">
<feFlood flood-opacity="0" result="BackgroundImageFix"/>
<feBlend mode="normal" in="SourceGraphic" in2="BackgroundImageFix" result="shape"/>
<feGaussianBlur stdDeviation="50" result="effect1_foregroundBlur_1670_10607"/>
</filter>
<filter id="filter1_f_1670_10607" x="157.867" y="191.768" width="1318.45" height="1122.79" filterUnits="userSpaceOnUse" color-interpolation-filters="sRGB">
<feFlood flood-opacity="0" result="BackgroundImageFix"/>
<feBlend mode="normal" in="SourceGraphic" in2="BackgroundImageFix" result="shape"/>
<feGaussianBlur stdDeviation="50" result="effect1_foregroundBlur_1670_10607"/>
</filter>
<filter id="filter2_f_1670_10607" x="1231.33" y="493.285" width="923.68" height="926" filterUnits="userSpaceOnUse" color-interpolation-filters="sRGB">
<feFlood flood-opacity="0" result="BackgroundImageFix"/>
<feBlend mode="normal" in="SourceGraphic" in2="BackgroundImageFix" result="shape"/>
<feGaussianBlur stdDeviation="50" result="effect1_foregroundBlur_1670_10607"/>
</filter>
<filter id="filter3_f_1670_10607" x="979.297" y="205.135" width="919.203" height="1104.68" filterUnits="userSpaceOnUse" color-interpolation-filters="sRGB">
<feFlood flood-opacity="0" result="BackgroundImageFix"/>
<feBlend mode="normal" in="SourceGraphic" in2="BackgroundImageFix" result="shape"/>
<feGaussianBlur stdDeviation="50" result="effect1_foregroundBlur_1670_10607"/>
</filter>
<linearGradient id="paint0_linear_1670_10607" x1="807.449" y1="275.26" x2="1002.27" y2="1014.96" gradientUnits="userSpaceOnUse">
<stop stop-color="#4F709D"/>
<stop offset="0.218412" stop-color="#1EA8C3"/>
<stop offset="0.769192" stop-color="white"/>
</linearGradient>
<linearGradient id="paint1_linear_1670_10607" x1="2778.22" y1="391.217" x2="648.289" y2="687.971" gradientUnits="userSpaceOnUse">
<stop stop-color="#67B3D8"/>
<stop offset="1" stop-color="white"/>
</linearGradient>
<linearGradient id="paint2_linear_1670_10607" x1="1958.51" y1="1037.6" x2="1000.48" y2="997.413" gradientUnits="userSpaceOnUse">
<stop stop-color="#E3EFFF" stop-opacity="0"/>
<stop offset="0.5" stop-color="#92DDF3"/>
<stop offset="1" stop-color="#41CBE6"/>
</linearGradient>
<linearGradient id="paint3_linear_1670_10607" x1="1427.32" y1="1299.75" x2="2013.19" y2="353.102" gradientUnits="userSpaceOnUse">
<stop stop-color="#E3EFFF" stop-opacity="0"/>
<stop offset="0.5" stop-color="white"/>
<stop offset="1" stop-color="#007B93"/>
</linearGradient>
</defs>
</svg>
