<svg width="568" height="547" viewBox="0 0 568 547" fill="none" xmlns="http://www.w3.org/2000/svg">
<path d="M109.957 446.687C109.454 447.18 108.08 448.092 106.619 449.142L105.106 450.246L106.918 450.831C108.481 451.195 109.981 451.777 111.37 452.559C111.493 452.681 111.59 452.827 111.653 452.986C111.717 453.145 111.746 453.315 111.74 453.486C111.734 453.657 111.693 453.824 111.618 453.979C111.543 454.134 111.437 454.272 111.305 454.386C110.243 455.432 108.73 454.11 106.173 452.337L104.577 451.262L104.568 453.14C104.564 455.675 104.807 457.364 104.026 458.134C103.905 458.25 103.761 458.341 103.603 458.404C103.445 458.466 103.275 458.497 103.105 458.496C102.934 458.495 102.765 458.461 102.608 458.397C102.45 458.332 102.308 458.239 102.188 458.121C101.278 457.26 102.05 455.561 102.873 452.885L103.419 451.137L101.59 451.668C98.8284 452.567 97.0856 453.29 96.1709 452.429C95.9268 452.196 95.7858 451.881 95.7777 451.551C95.7696 451.22 95.8951 450.899 96.1276 450.656C96.9079 449.886 98.6897 450.116 101.291 450.037L103.237 449.991L102.123 448.502C100.177 446.013 98.863 444.608 99.899 443.592C100.015 443.458 100.159 443.349 100.322 443.272C100.485 443.195 100.662 443.152 100.843 443.145C101.024 443.139 101.204 443.169 101.372 443.233C101.54 443.298 101.693 443.396 101.819 443.52C102.647 444.824 103.262 446.243 103.64 447.728L104.277 449.464L105.392 447.983C106.177 446.868 107.025 445.796 107.932 444.771C108.047 444.621 108.196 444.499 108.368 444.413C108.539 444.327 108.729 444.281 108.922 444.276C109.115 444.272 109.307 444.31 109.482 444.388C109.658 444.465 109.813 444.581 109.935 444.725C110.086 444.843 110.208 444.991 110.293 445.16C110.377 445.329 110.422 445.513 110.424 445.701C110.426 445.888 110.386 446.074 110.305 446.244C110.224 446.415 110.106 446.566 109.957 446.687Z" fill="#1D1D1B"/>
<path d="M147.723 477.727L157.703 483.645L156.849 484.991L153.48 483.494C151.655 486.217 149.856 489.044 148.035 491.901L144.771 497.028C143.352 499.491 141.661 501.799 139.729 503.912C138.539 505.162 136.925 505.961 135.179 506.163C133.432 506.366 131.668 505.959 130.205 505.016C128.909 504.247 127.812 503.097 128.267 501.645C128.445 501.415 128.669 501.222 128.925 501.078C129.182 500.933 129.467 500.84 129.762 500.803C130.056 500.767 130.356 500.788 130.642 500.866C130.928 500.944 131.195 501.077 131.427 501.256C132.35 501.858 133.024 502.754 133.33 503.787L133.764 504.949C134.613 504.714 135.4 504.304 136.07 503.748C136.741 503.192 137.279 502.504 137.648 501.729C138.906 499.755 140.869 496.3 150.108 481.495L146.865 479.073L147.723 477.727Z" fill="#1D1D1B"/>
<path d="M164.552 500.918C166 497.911 167.452 494.904 168.831 491.863L165.679 489.981L166.372 488.551L177.063 493.352C178.72 493.965 180.217 494.92 181.451 496.151C182.685 497.381 183.625 498.857 184.205 500.475C184.785 502.092 184.992 503.813 184.81 505.516C184.629 507.219 184.063 508.863 183.154 510.332C182.483 511.959 181.458 513.427 180.148 514.638C178.838 515.849 177.274 516.775 175.562 517.353C173.849 517.931 172.028 518.147 170.222 517.988C168.415 517.829 166.665 517.298 165.089 516.43L155.088 511.938L155.782 510.504L159.297 511.616C160.806 508.68 162.289 505.602 163.927 502.21L164.552 500.918ZM162.805 513.402L165.666 514.69C171.245 517.196 176.135 514.925 179.205 508.559C182.374 501.989 180.96 497.058 175.706 494.699L172.52 493.264C170.994 496.242 169.494 499.354 167.994 502.461L167.37 503.758C165.714 507.183 164.213 510.295 162.805 513.402Z" fill="#1D1D1B"/>
<path d="M195.753 510.264L195.389 509.042C197.413 508.493 199.238 507.408 200.656 505.91L199.902 504.597C199.565 504.141 199.344 503.616 199.256 503.063C199.168 502.511 199.215 501.946 199.394 501.414C199.463 501.112 199.603 500.828 199.801 500.585C200 500.342 200.253 500.146 200.542 500.011C200.83 499.875 201.147 499.805 201.468 499.805C201.789 499.804 202.105 499.874 202.394 500.009C202.772 500.118 203.124 500.299 203.428 500.541C203.733 500.783 203.984 501.081 204.167 501.418C204.221 502.354 204.086 503.292 203.769 504.178C203.045 505.745 201.937 507.117 200.541 508.178C199.144 509.238 197.501 509.954 195.753 510.264Z" fill="#1D1D1B"/>
<path d="M222.132 529.281C222.756 526.889 221.568 525.45 218.594 523.418L217.242 522.451C215.53 521.635 214.142 520.3 213.293 518.65C212.443 517 212.178 515.126 212.538 513.317C212.863 512.309 213.401 511.377 214.118 510.58C214.835 509.783 215.717 509.139 216.706 508.688C217.695 508.237 218.771 507.989 219.865 507.96C220.958 507.931 222.046 508.122 223.06 508.52C225.354 509.03 227.409 510.256 228.908 512.008L227.395 516.847L225.032 516.274L225.323 511.853C224.485 511.102 223.456 510.579 222.34 510.335C221.727 510.087 221.066 509.968 220.401 509.985C219.736 510.002 219.082 510.156 218.484 510.435C217.885 510.714 217.354 511.113 216.927 511.604C216.5 512.096 216.186 512.67 216.006 513.288C215.399 515.605 216.631 517.374 219.145 519.097L220.549 520.034C225.127 523.175 226.536 525.822 225.613 529.373C224.46 533.786 219.96 535.555 214.576 534.246C211.913 533.614 209.479 532.293 207.535 530.427L209.135 525.254L211.536 525.835L211.159 530.436C212.22 531.391 213.529 532.051 214.948 532.347C218.59 533.233 221.382 532.163 222.132 529.281Z" fill="#1D1D1B"/>
<path d="M257.458 514.98L269.133 515.901L268.998 517.473L265.296 517.607C264.945 520.832 264.663 524.136 264.381 527.477L263.874 533.471C263.765 536.285 263.34 539.08 262.608 541.806C262.132 543.439 261.068 544.853 259.606 545.795C258.144 546.737 256.381 547.144 254.636 546.942C253.123 546.821 251.606 546.277 251.328 544.784C251.378 544.501 251.487 544.232 251.648 543.991C251.809 543.75 252.018 543.542 252.264 543.381C252.509 543.22 252.786 543.108 253.077 543.052C253.369 542.997 253.669 542.998 253.96 543.057C255.066 543.191 256.088 543.695 256.847 544.483L257.779 545.332C258.424 544.75 258.932 544.041 259.269 543.253C259.605 542.465 259.763 541.616 259.73 540.765C259.925 538.46 260.055 534.525 261.356 517.297L257.328 516.553L257.458 514.98Z" fill="#1D1D1B"/>
<path d="M293.635 539.703C298.153 539.561 300.385 536.984 300.16 530.159L299.752 517.938L295.66 517.561L295.604 515.981L305.197 515.684L305.249 517.265L301.786 517.796L302.228 531.02C302.501 539.155 298.525 542.292 293.05 542.459C287.254 542.639 283.235 539.678 282.993 532.467L282.854 528.302C282.745 524.989 282.633 521.673 282.442 518.36L279.113 518.076L279.061 516.495L290.371 516.144L290.423 517.725L286.361 518.314C286.391 521.556 286.5 524.835 286.613 528.189L286.712 531.234C286.933 537.825 289.56 539.828 293.635 539.703Z" fill="#1D1D1B"/>
<path d="M330.805 512.054L340.291 510.465L340.568 512.021L337.313 513.075L341.57 536.692L340.191 536.922L320.722 518.871L324.025 537.211L328.291 537.04L328.573 538.6L319.048 540.193L318.767 538.637L322.031 537.621L318.233 516.55L317.8 516.153L314.947 516.32L314.67 514.76L320.731 513.744L338.331 530.193L335.305 513.413L331.083 513.61L330.805 512.054Z" fill="#1D1D1B"/>
<path d="M378.251 524.572C376.155 526.753 373.522 528.388 370.596 529.327C367.098 530.272 363.356 529.867 360.163 528.197C356.97 526.527 354.576 523.724 353.488 520.381C352.4 517.037 352.703 513.417 354.334 510.286C355.964 507.155 358.794 504.759 362.224 503.606C364.857 502.682 367.7 502.462 370.452 502.97L372.382 508.286L370.023 509.013L367.873 505.061C366.31 504.756 364.691 504.851 363.178 505.337C357.924 506.96 355.318 512.138 357.651 519.156C359.979 526.169 364.873 529.03 370.7 527.227C372.102 526.82 373.404 526.143 374.528 525.237L374.137 524.061C373.405 521.857 372.624 519.628 371.853 517.437L367.786 518.332L367.297 516.859L377.311 513.769L377.796 515.237L375.546 516.174C376.24 518.39 376.96 520.678 377.714 522.957L378.251 524.572Z" fill="#1D1D1B"/>
<path d="M385.428 497.92L381.912 499.036L381.219 497.606L391.454 492.984L392.148 494.415L389.009 496.301C390.392 499.333 391.849 502.336 393.305 505.335L394.472 507.744C395.677 510.224 397.099 513.152 398.607 516.088L406.818 512.378L405.531 507.087L407.737 506.092L410.56 512.817L392.547 520.952L391.853 519.521L394.996 517.635C393.609 514.603 392.152 511.6 390.713 508.635L389.868 506.891C388.393 503.854 386.92 500.818 385.428 497.92Z" fill="#1D1D1B"/>
<path d="M417.93 492.968C416.109 490.161 414.284 487.351 412.394 484.582L409.043 486.105L408.176 484.762L425.044 474.578L429.032 480.216L427.103 481.383L423.665 477.681L415.706 482.491C417.44 485.31 419.282 488.15 421.021 490.831L426.002 487.823L424.459 484.432L426.019 483.49L431.022 491.203L429.466 492.144L427.03 489.337L422.018 492.365C424.138 495.632 425.941 498.409 427.767 501.081L436.407 495.866L434.434 491.232L436.368 490.069L439.905 496.025L422.361 506.623L421.489 505.28L424.372 503.043C422.66 500.257 420.817 497.414 418.97 494.569L417.93 492.968Z" fill="#1D1D1B"/>
<path d="M464.168 440.35C464.684 440.831 465.638 442.152 466.739 443.553L467.892 445.005L468.481 443.252C468.85 441.741 469.444 440.29 470.246 438.944C470.372 438.825 470.522 438.732 470.687 438.67C470.852 438.607 471.027 438.578 471.204 438.583C471.381 438.587 471.555 438.626 471.716 438.697C471.876 438.768 472.021 438.869 472.14 438.995C473.228 440.011 471.872 441.479 470.051 443.963L468.945 445.506L470.896 445.502C473.523 445.485 475.27 445.239 476.077 445.992C476.197 446.108 476.293 446.245 476.358 446.397C476.424 446.549 476.457 446.712 476.457 446.876C476.457 447.04 476.424 447.203 476.358 447.355C476.293 447.507 476.197 447.645 476.077 447.761C475.188 448.647 473.424 447.915 470.641 447.142L468.824 446.627L469.392 448.388C470.341 451.044 471.104 452.721 470.216 453.608C469.978 453.845 469.653 453.985 469.311 453.996C468.969 454.006 468.635 453.888 468.382 453.666C467.58 452.917 467.801 451.194 467.701 448.689L467.641 446.807L466.106 447.894C463.54 449.793 462.092 451.069 461.029 450.078C460.891 449.966 460.778 449.827 460.698 449.671C460.618 449.515 460.572 449.344 460.564 449.17C460.556 448.995 460.585 448.821 460.65 448.659C460.716 448.496 460.815 448.348 460.943 448.225C462.288 447.416 463.755 446.814 465.291 446.439L467.086 445.807L465.542 444.745C464.382 443.996 463.265 443.186 462.196 442.32C462.04 442.209 461.912 442.066 461.822 441.901C461.732 441.736 461.682 441.553 461.676 441.367C461.67 441.18 461.707 440.995 461.786 440.824C461.865 440.654 461.983 440.503 462.131 440.383C462.253 440.237 462.406 440.119 462.581 440.037C462.756 439.954 462.947 439.91 463.141 439.907C463.335 439.903 463.528 439.942 463.706 440.018C463.883 440.095 464.041 440.208 464.168 440.35Z" fill="#1D1D1B"/>
<path d="M496.146 403.697L502.22 394.031L503.62 394.851L502.09 398.105C504.921 399.853 507.864 401.572 510.843 403.312L516.179 406.432C518.74 407.786 521.142 409.401 523.345 411.25C524.647 412.392 525.484 413.944 525.704 415.628C525.924 417.312 525.514 419.017 524.546 420.434C523.757 421.689 522.574 422.756 521.065 422.325C520.825 422.155 520.624 421.941 520.472 421.694C520.32 421.447 520.221 421.174 520.182 420.89C520.142 420.605 520.162 420.316 520.241 420.04C520.32 419.763 520.456 419.505 520.64 419.28C521.259 418.385 522.184 417.729 523.254 417.427L524.455 417.001C524.206 416.182 523.776 415.426 523.195 414.783C522.615 414.14 521.897 413.625 521.091 413.274C519.041 412.074 515.447 410.2 500.039 401.371L497.547 404.521L496.146 403.697Z" fill="#1D1D1B"/>
<path d="M520.152 387.226C517.03 385.846 513.905 384.461 510.749 383.148L508.819 386.197L507.328 385.536L512.244 375.202C512.871 373.601 513.853 372.152 515.121 370.956C516.39 369.76 517.914 368.846 519.587 368.278C521.26 367.71 523.042 367.502 524.807 367.669C526.572 367.835 528.279 368.372 529.806 369.242C531.494 369.88 533.02 370.861 534.281 372.117C535.543 373.373 536.51 374.876 537.118 376.523C537.726 378.171 537.96 379.925 537.805 381.668C537.649 383.41 537.108 385.1 536.218 386.624L531.618 396.293L530.131 395.633L531.262 392.232C528.211 390.798 525.016 389.38 521.495 387.824L520.152 387.226ZM533.096 388.845L534.41 386.08C536.976 380.685 534.596 375.984 527.99 373.056C521.166 370.037 516.063 371.425 513.649 376.503L512.183 379.585C515.27 381.04 518.504 382.471 521.734 383.901L523.078 384.495C526.637 386.072 529.867 387.502 533.096 388.845Z" fill="#1D1D1B"/>
<path d="M529.595 357.147L528.334 357.507C527.755 355.556 526.619 353.801 525.056 352.442L523.704 353.178C523.232 353.504 522.689 353.72 522.116 353.807C521.543 353.894 520.957 353.851 520.405 353.68C520.091 353.615 519.798 353.483 519.545 353.293C519.292 353.103 519.088 352.86 518.946 352.583C518.804 352.306 518.729 352.001 518.727 351.692C518.724 351.383 518.794 351.078 518.931 350.799C519.042 350.433 519.228 350.092 519.478 349.796C519.727 349.501 520.035 349.256 520.383 349.075C521.354 349.019 522.327 349.146 523.249 349.448C524.875 350.137 526.303 351.199 527.409 352.54C528.515 353.882 529.265 355.463 529.595 357.147Z" fill="#1D1D1B"/>
<path d="M549.166 331.547C546.682 330.957 545.195 332.115 543.101 334.993L542.108 336.306C541.27 337.962 539.893 339.307 538.187 340.136C536.48 340.965 534.54 341.231 532.662 340.894C531.615 340.586 530.645 340.072 529.815 339.384C528.985 338.695 528.312 337.848 527.84 336.896C527.367 335.943 527.104 334.906 527.069 333.851C527.033 332.796 527.225 331.744 527.633 330.764C528.148 328.548 529.406 326.557 531.214 325.102L536.243 326.536L535.662 328.82L531.075 328.565C530.3 329.377 529.762 330.373 529.514 331.451C529.262 332.044 529.142 332.682 529.164 333.324C529.186 333.965 529.348 334.595 529.641 335.171C529.933 335.747 530.349 336.257 530.861 336.667C531.373 337.077 531.969 337.377 532.61 337.548C535.016 338.117 536.845 336.925 538.618 334.487L539.585 333.128C542.815 328.69 545.555 327.314 549.239 328.192C553.822 329.28 555.677 333.613 554.351 338.816C553.712 341.389 552.357 343.744 550.432 345.629L545.056 344.115L545.646 341.793L550.419 342.132C551.404 341.104 552.083 339.838 552.382 338.468C553.28 334.947 552.153 332.258 549.166 331.547Z" fill="#1D1D1B"/>
<path d="M534.125 297.552L534.996 286.293L536.631 286.41L536.795 289.978C540.134 290.295 543.558 290.546 547.026 290.793L553.239 291.245C556.154 291.331 559.051 291.721 561.879 292.407C563.574 292.855 565.047 293.872 566.033 295.276C567.019 296.679 567.452 298.377 567.254 300.061C567.142 301.521 566.587 302.989 565.044 303.261C564.75 303.214 564.47 303.112 564.219 302.958C563.968 302.805 563.751 302.605 563.582 302.369C563.414 302.133 563.296 301.867 563.236 301.586C563.177 301.305 563.177 301.015 563.236 300.735C563.367 299.669 563.882 298.681 564.692 297.945L565.564 297.042C564.958 296.422 564.221 295.936 563.402 295.617C562.583 295.297 561.703 295.153 560.821 295.193C558.432 295.017 554.353 294.917 536.501 293.783L535.759 297.669L534.125 297.552Z" fill="#1D1D1B"/>
<path d="M559.524 262.578C559.355 258.233 556.676 256.092 549.614 256.347L536.964 256.803L536.6 260.747L534.961 260.805L534.605 251.566L536.24 251.508L536.808 254.841L550.494 254.348C558.913 254.044 562.177 257.861 562.381 263.135C562.598 268.714 559.55 272.6 552.089 272.871L547.78 273.026C544.351 273.147 540.917 273.273 537.493 273.474L537.215 276.681L535.581 276.74L535.156 265.849L536.795 265.79L537.423 269.697C540.779 269.655 544.169 269.534 547.641 269.408L550.793 269.295C557.617 269.049 559.676 266.506 559.524 262.578Z" fill="#1D1D1B"/>
<path d="M530.623 226.847L528.91 217.713L530.523 217.432L531.637 220.565L556.074 216.297L556.322 217.623L537.754 236.523L556.729 233.21L556.525 229.095L558.138 228.815L559.859 237.987L558.246 238.269L557.171 235.128L535.37 238.936L534.962 239.361L535.153 242.106L533.54 242.389L532.443 236.55L549.364 219.465L531.997 222.497L532.235 226.567L530.623 226.847Z" fill="#1D1D1B"/>
<path d="M543.325 180.996C545.598 183.005 547.307 185.537 548.293 188.355C549.295 191.724 548.897 195.337 547.184 198.428C545.472 201.52 542.578 203.846 539.118 204.914C535.658 205.982 531.902 205.708 528.648 204.151C525.393 202.593 522.895 199.874 521.683 196.569C520.71 194.035 520.466 191.294 520.977 188.637L526.474 186.745L527.245 189.018L523.162 191.113C522.851 192.622 522.957 194.184 523.47 195.641C525.182 200.699 530.562 203.184 537.819 200.9C545.08 198.616 548.02 193.878 546.121 188.269C545.691 186.918 544.982 185.664 544.036 184.585L542.817 184.967C540.537 185.684 538.235 186.452 535.964 187.205L536.913 191.126L535.391 191.605L532.131 181.962L533.653 181.483L534.637 183.65C536.93 182.968 539.297 182.263 541.655 181.521L543.325 180.996Z" fill="#1D1D1B"/>
<path d="M515.6 174.204L516.788 177.585L515.31 178.267L510.441 168.428L511.92 167.746L513.901 170.764C517.031 169.404 520.131 167.978 523.23 166.55L525.719 165.404C528.276 164.227 531.302 162.832 534.333 161.351L530.427 153.459L524.956 154.741L523.902 152.621L530.851 149.848L539.418 167.16L537.944 167.842L535.963 164.827C532.828 166.184 529.729 167.612 526.668 169.022L524.865 169.852C521.73 171.297 518.596 172.74 515.6 174.204Z" fill="#1D1D1B"/>
<path d="M510.334 142.934C507.433 144.711 504.533 146.486 501.672 148.327L503.272 151.549L501.889 152.396L491.229 136.187L497.051 132.306L498.269 134.161L494.458 137.499L499.487 145.146C502.396 143.456 505.331 141.66 508.097 139.966L504.954 135.184L501.447 136.689L500.463 135.192L508.426 130.32L509.41 131.815L506.515 134.18L509.684 138.996C513.056 136.932 515.926 135.175 518.683 133.398L513.225 125.098L508.435 127.026L507.213 125.171L513.368 121.723L524.458 138.579L523.075 139.426L520.734 136.66C517.855 138.328 514.92 140.127 511.986 141.923L510.334 142.934Z" fill="#1D1D1B"/>
<path d="M455.406 98.5463C455.904 98.0465 457.27 97.118 458.714 96.0515L460.214 94.9285L458.393 94.3681C456.825 94.0201 455.318 93.4545 453.919 92.6889C453.795 92.5675 453.697 92.4232 453.632 92.2647C453.567 92.1062 453.535 91.9367 453.539 91.7662C453.543 91.5957 453.583 91.4277 453.656 91.2723C453.728 91.1168 453.833 90.977 453.962 90.8612C455.016 89.8031 456.542 91.108 459.126 92.8541L460.73 93.9102L460.717 92.03C460.686 89.4935 460.422 87.8101 461.198 87.03C461.317 86.9126 461.46 86.8191 461.617 86.7549C461.775 86.6908 461.944 86.6572 462.115 86.6563C462.285 86.6553 462.455 86.6869 462.613 86.7492C462.771 86.8116 462.915 86.9035 463.036 87.0196C463.959 87.8728 463.205 89.5792 462.416 92.2664L461.891 94.023L463.716 93.4667C466.465 92.5361 468.199 91.7917 469.122 92.6449C469.37 92.8736 469.516 93.1863 469.529 93.5169C469.542 93.8475 469.421 94.17 469.192 94.4161C468.416 95.194 466.63 94.987 464.033 95.0957L462.086 95.1626L463.222 96.639C465.199 99.1066 466.53 100.495 465.507 101.526C465.392 101.661 465.249 101.771 465.087 101.849C464.926 101.927 464.749 101.972 464.568 101.981C464.388 101.99 464.207 101.963 464.038 101.9C463.869 101.838 463.715 101.743 463.586 101.62C462.743 100.326 462.111 98.9138 461.714 97.4338L461.05 95.7023L459.954 97.1975C459.184 98.3218 458.351 99.4039 457.456 100.439C457.343 100.589 457.195 100.713 457.025 100.801C456.854 100.888 456.665 100.937 456.472 100.944C456.279 100.95 456.087 100.915 455.911 100.839C455.734 100.764 455.578 100.65 455.454 100.508C455.301 100.392 455.177 100.245 455.09 100.077C455.003 99.9094 454.956 99.7253 454.951 99.5379C454.947 99.3505 454.985 99.1644 455.064 98.993C455.142 98.8216 455.259 98.6691 455.406 98.5463Z" fill="#1D1D1B"/>
<path d="M417.283 67.9264L407.238 62.1443L408.075 60.7893L411.456 62.2405C413.243 59.5011 415.003 56.6592 416.78 53.7817L419.971 48.6228C421.354 46.1471 423.011 43.8228 424.913 41.6906C426.084 40.4291 427.684 39.6132 429.425 39.3901C431.165 39.1669 432.93 39.5511 434.403 40.4735C435.707 41.2243 436.817 42.3576 436.384 43.811C436.21 44.0432 435.989 44.2392 435.735 44.3872C435.481 44.5352 435.199 44.6322 434.905 44.6724C434.611 44.7127 434.312 44.6953 434.025 44.6213C433.738 44.5473 433.47 44.4182 433.236 44.2418C432.306 43.6512 431.621 42.7646 431.298 41.7364L430.852 40.5801C430.007 40.8264 429.227 41.2458 428.566 41.8095C427.905 42.3732 427.377 43.068 427.02 43.8465C425.793 45.8289 423.877 49.3003 414.846 64.1937L418.12 66.5713L417.283 67.9264Z" fill="#1D1D1B"/>
<path d="M400.082 44.9595C398.664 47.9834 397.251 51.0072 395.907 54.0624L399.081 55.9089L398.404 57.3497L387.653 52.6655C385.988 52.0698 384.479 51.1303 383.231 49.9127C381.982 48.6951 381.025 47.229 380.426 45.6169C379.826 44.0048 379.6 42.2858 379.762 40.5803C379.923 38.8748 380.47 37.2241 381.362 35.7437C382.015 34.1101 383.022 32.6305 384.318 31.4049C385.614 30.1793 387.167 29.2362 388.873 28.6393C390.579 28.0425 392.397 27.8057 394.206 27.9451C396.015 28.0845 397.772 28.5967 399.358 29.4472L409.415 33.8303L408.739 35.2711L405.206 34.1984C403.736 37.1532 402.288 40.2481 400.689 43.6589L400.082 44.9595ZM401.682 32.4501L398.803 31.1953C393.189 28.7486 388.329 31.076 385.334 37.473C382.238 44.0831 383.708 48.9995 388.993 51.3019L392.201 52.7009C393.688 49.7084 395.153 46.58 396.618 43.4495L397.229 42.1488C398.842 38.7049 400.307 35.5742 401.682 32.4501Z" fill="#1D1D1B"/>
<path d="M368.848 36.0352L369.229 37.2543C367.209 37.8279 365.396 38.9372 363.996 40.4559L364.768 41.7587C365.111 42.2111 365.339 42.7345 365.434 43.2871C365.53 43.8397 365.49 44.4063 365.319 44.9415C365.253 45.2443 365.117 45.529 364.921 45.7741C364.726 46.0193 364.475 46.2186 364.188 46.3573C363.902 46.4961 363.586 46.5705 363.265 46.5752C362.945 46.5799 362.627 46.5146 362.336 46.3844C361.956 46.2794 361.602 46.1026 361.294 45.8642C360.986 45.6258 360.73 45.3306 360.541 44.9958C360.474 44.0591 360.596 43.1188 360.901 42.2271C361.605 40.6503 362.697 39.2626 364.081 38.1838C365.466 37.105 367.102 36.3675 368.848 36.0352Z" fill="#1D1D1B"/>
<path d="M342.182 17.3136C341.588 19.7143 342.797 21.1423 345.797 23.1417L347.163 24.0911C348.885 24.8874 350.29 26.2067 351.16 27.8468C352.031 29.4868 352.32 31.3571 351.984 33.171C351.673 34.1834 351.147 35.1224 350.44 35.9284C349.733 36.7344 348.86 37.3897 347.876 37.8528C346.892 38.3159 345.819 38.5766 344.726 38.6184C343.632 38.6603 342.541 38.4822 341.523 38.0957C339.221 37.6131 337.149 36.4113 335.627 34.6766L337.075 29.8167L339.446 30.3625L339.216 34.7896C340.064 35.5301 341.099 36.0422 342.216 36.2744C342.833 36.5146 343.496 36.6258 344.161 36.6004C344.826 36.5751 345.478 36.4139 346.073 36.1275C346.668 35.841 347.194 35.4359 347.615 34.9389C348.036 34.4418 348.343 33.8642 348.515 33.2442C349.092 30.9187 347.839 29.1644 345.299 27.4684L343.885 26.5483C339.264 23.4617 337.821 20.8289 338.7 17.2656C339.797 12.8407 344.275 11.0171 349.677 12.2614C352.349 12.8597 354.802 14.1504 356.769 15.9942L355.235 21.1928L352.824 20.6387L353.145 16.0318C352.072 15.088 350.753 14.4427 349.33 14.1646C345.676 13.3215 342.897 14.4257 342.182 17.3136Z" fill="#1D1D1B"/>
<path d="M306.946 32.0029L295.275 31.2165L295.388 29.6419L299.082 29.4663C299.394 26.2438 299.636 22.9377 299.875 19.596L300.308 13.6006C300.385 10.7886 300.775 7.99272 301.47 5.26094C301.926 3.62442 302.973 2.19887 304.422 1.24169C305.871 0.284506 307.627 -0.141223 309.373 0.0413678C310.886 0.141712 312.412 0.668701 312.703 2.15553C312.656 2.43857 312.551 2.70962 312.393 2.95248C312.236 3.19535 312.029 3.40504 311.785 3.56902C311.541 3.73299 311.266 3.84789 310.975 3.90684C310.685 3.96579 310.385 3.96757 310.093 3.91209C308.987 3.78893 307.961 3.2962 307.193 2.51939L306.252 1.68293C305.614 2.27138 305.115 2.98532 304.789 3.77627C304.463 4.56721 304.317 5.41662 304.362 6.26678C304.193 8.57332 304.11 12.5047 303.026 29.7297L307.058 30.4261L306.946 32.0029Z" fill="#1D1D1B"/>
<path d="M270.55 7.74948C266.041 7.94186 263.839 10.5412 264.151 17.3542L264.711 29.5562L268.803 29.8825L268.877 31.4613L259.3 31.869L259.227 30.2902L262.682 29.7193L262.075 16.5178C261.702 8.39566 265.638 5.21917 271.101 4.98704C276.888 4.74027 280.937 7.65329 281.267 14.8511L281.457 19.0083C281.609 22.3187 281.761 25.629 281.991 28.9352L285.32 29.1798L285.394 30.7566L274.101 31.2375L274.031 29.6608L278.08 29.0251C278.011 25.7879 277.859 22.5173 277.707 19.1673L277.569 16.1265C277.265 9.54587 274.616 7.57582 270.55 7.74948Z" fill="#1D1D1B"/>
<path d="M233.745 35.8749L224.277 37.5917L223.973 36.038L227.22 34.9401L222.625 11.3643L223.999 11.1154L243.742 28.9217L240.174 10.6156L235.908 10.8394L235.605 9.28561L245.112 7.5625L245.415 9.11623L242.164 10.1765L246.26 31.2116L246.703 31.6026L249.551 31.3998L249.854 32.9556L243.802 34.0514L225.959 17.8239L229.223 34.5763L233.441 34.3212L233.745 35.8749Z" fill="#1D1D1B"/>
<path d="M186.098 23.902C188.161 21.6962 190.769 20.0301 193.68 19.0588C195.395 18.4597 197.221 18.2113 199.041 18.3294C200.861 18.4474 202.636 18.9292 204.253 19.7443C205.869 20.5594 207.293 21.69 208.433 23.0641C209.572 24.4383 210.403 26.0261 210.873 27.7267C211.55 29.3694 211.865 31.13 211.798 32.8965C211.731 34.663 211.284 36.3968 210.486 37.9877C209.687 39.5786 208.554 40.9917 207.158 42.1374C205.763 43.283 204.136 44.136 202.38 44.6422C199.764 45.5976 196.929 45.8534 194.174 45.3825L192.175 40.096L194.521 39.339L196.723 43.26C198.288 43.5468 199.905 43.4314 201.409 42.9254C206.633 41.2399 209.165 36.035 206.746 29.0588C204.327 22.0806 199.398 19.2847 193.606 21.1542C192.21 21.5797 190.919 22.2732 189.808 23.193L190.211 24.3622C190.974 26.5538 191.785 28.7683 192.583 30.9494L196.632 30.0063L197.139 31.468L187.181 34.6822L186.674 33.2204L188.906 32.2564C188.187 30.0523 187.437 27.775 186.652 25.5103L186.098 23.902Z" fill="#1D1D1B"/>
<path d="M179.291 50.66L182.794 49.4951L183.505 50.9192L173.325 55.6704L172.61 54.2485L175.731 52.3225C174.305 49.305 172.809 46.3187 171.309 43.3347L170.109 40.9402C168.873 38.4769 167.412 35.5618 165.86 32.6467L157.693 36.4589L159.054 41.7349L156.861 42.7596L153.947 36.0678L171.86 27.7031L172.571 29.1272L169.454 31.0532C170.88 34.0708 172.376 37.0549 173.859 40.0055L174.726 41.7391C176.243 44.7587 177.756 47.7784 179.291 50.66Z" fill="#1D1D1B"/>
<path d="M146.854 55.9576C148.714 58.7452 150.57 61.5327 152.499 64.2784L155.824 62.7184L156.713 64.0463L139.979 74.429L135.921 68.8371L137.837 67.6494L141.319 71.3068L149.213 66.4074C147.444 63.6115 145.567 60.7905 143.794 58.1326L138.856 61.1983L140.438 64.5692L138.891 65.527L133.793 57.8775L135.336 56.9197L137.807 59.6949L142.78 56.6104C140.616 53.3691 138.778 50.613 136.918 47.9656L128.352 53.2813L130.377 57.8881L128.465 59.076L124.854 53.16L142.255 42.3633L143.144 43.6912L140.287 45.9664C142.038 48.7309 143.915 51.5498 145.797 54.3708L146.854 55.9576Z" fill="#1D1D1B"/>
<path d="M101.234 109.215C100.709 108.739 99.738 107.429 98.6195 106.041L97.449 104.602L96.8767 106.363C96.5295 107.879 95.954 109.337 95.1687 110.692C95.0438 110.812 94.8949 110.907 94.7311 110.971C94.5673 111.035 94.3918 111.067 94.215 111.064C94.0383 111.062 93.8639 111.025 93.7023 110.956C93.5407 110.887 93.3951 110.787 93.2742 110.662C92.1689 109.657 93.5126 108.174 95.3029 105.671L96.3867 104.113L94.4359 104.14C91.8088 104.186 90.066 104.452 89.2509 103.711C89.0039 103.479 88.8624 103.162 88.8576 102.83C88.8527 102.497 88.9848 102.177 89.2249 101.938C90.1049 101.041 91.878 101.756 94.6699 102.496L96.495 102.992L95.9054 101.235C94.9213 98.5901 94.1366 96.9213 95.0167 96.0242C95.2518 95.7838 95.5747 95.6411 95.9169 95.6263C96.2591 95.6114 96.5939 95.7256 96.8505 95.9447C97.6655 96.6871 97.4617 98.4102 97.5918 100.915L97.6786 102.796L99.2002 101.689C101.741 99.7634 103.171 98.4687 104.246 99.4495C104.387 99.5589 104.503 99.6957 104.586 99.8509C104.669 100.006 104.717 100.176 104.728 100.351C104.739 100.525 104.711 100.7 104.648 100.863C104.584 101.027 104.486 101.176 104.359 101.3C103.024 102.125 101.564 102.745 100.033 103.138L98.2421 103.789L99.8028 104.836C100.974 105.57 102.102 106.368 103.18 107.224C103.337 107.333 103.467 107.475 103.559 107.639C103.651 107.803 103.703 107.985 103.711 108.171C103.72 108.358 103.684 108.543 103.607 108.714C103.53 108.886 103.414 109.038 103.267 109.159C103.147 109.306 102.995 109.426 102.822 109.511C102.648 109.595 102.458 109.642 102.264 109.647C102.07 109.653 101.877 109.617 101.699 109.542C101.521 109.467 101.362 109.356 101.234 109.215Z" fill="#1D1D1B"/>
<path d="M69.7054 146.223L63.7704 155.949L62.3615 155.148L63.8442 151.88C60.9959 150.171 58.035 148.492 55.0394 146.792L49.6724 143.743C47.0974 142.423 44.6773 140.84 42.4542 139.019C41.1385 137.896 40.2824 136.356 40.0407 134.678C39.799 132.999 40.1876 131.293 41.1363 129.866C41.9036 128.605 43.0741 127.526 44.5828 127.936C44.8247 128.102 45.0293 128.314 45.1843 128.559C45.3393 128.803 45.4416 129.075 45.4849 129.359C45.5282 129.643 45.5117 129.932 45.4364 130.209C45.3611 130.486 45.2285 130.746 45.0466 130.973C44.442 131.874 43.5271 132.541 42.463 132.857L41.2665 133.296C41.5279 134.109 41.9679 134.859 42.5567 135.494C43.1454 136.129 43.869 136.633 44.6783 136.974C46.7418 138.145 50.353 139.973 65.8513 148.593L68.292 145.423L69.7054 146.223Z" fill="#1D1D1B"/>
<path d="M46.0454 162.849C49.1884 164.191 52.3269 165.534 55.5005 166.807L57.3906 163.737L58.8863 164.379L54.1132 174.77C53.5077 176.378 52.5451 177.839 51.2928 179.051C50.0406 180.262 48.529 181.195 46.8638 181.784C45.1987 182.372 43.4203 182.603 41.6531 182.459C39.886 182.315 38.1729 181.8 36.6337 180.95C34.9382 180.332 33.3997 179.371 32.1222 178.13C30.8446 176.89 29.8578 175.4 29.2283 173.76C28.5988 172.121 28.3412 170.37 28.473 168.626C28.6048 166.882 29.1229 165.186 29.9923 163.651L34.4619 153.93L35.9575 154.57L34.8693 157.982C37.943 159.381 41.1553 160.755 44.6972 162.269L46.0454 162.849ZM33.0873 161.391L31.8041 164.174C29.3114 169.599 31.7565 174.269 38.3979 177.11C45.2649 180.046 50.3414 178.595 52.6911 173.488L54.1173 170.387C51.009 168.974 47.7576 167.585 44.5106 166.195L43.158 165.617C39.5817 164.087 36.3301 162.696 33.0873 161.391Z" fill="#1D1D1B"/>
<path d="M36.9551 193.183L38.2166 192.809C38.8206 194.754 39.9787 196.496 41.559 197.838L42.9073 197.085C43.3741 196.752 43.9153 196.529 44.4874 196.434C45.0596 196.34 45.6468 196.376 46.202 196.539C46.5165 196.601 46.8126 196.73 47.068 196.917C47.3235 197.104 47.5318 197.345 47.6773 197.621C47.8228 197.897 47.9017 198.201 47.9083 198.51C47.9148 198.82 47.8487 199.127 47.715 199.408C47.6086 199.776 47.4273 200.119 47.1816 200.417C46.9359 200.716 46.6309 200.965 46.2844 201.148C45.3143 201.218 44.3394 201.104 43.4145 200.814C41.7764 200.143 40.3321 199.098 39.2066 197.769C38.0812 196.439 37.3084 194.865 36.9551 193.183Z" fill="#1D1D1B"/>
<path d="M17.7246 218.939C20.2173 219.499 21.6912 218.326 23.7461 215.421L24.7259 214.095C25.542 212.429 26.9018 211.067 28.597 210.218C30.2922 209.368 32.2293 209.078 34.1116 209.392C35.1638 209.687 36.1409 210.19 36.9811 210.868C37.8212 211.547 38.506 212.386 38.9919 213.334C39.4778 214.281 39.7543 215.316 39.8037 216.372C39.8532 217.427 39.6745 218.482 39.2791 219.468C38.7875 221.69 37.5521 223.696 35.7633 225.174L30.7172 223.801L31.2676 221.509L35.8588 221.709C36.6239 220.887 37.1503 219.884 37.3848 218.803C37.6304 218.206 37.7418 217.566 37.7118 216.924C37.6818 216.283 37.5109 215.655 37.2105 215.081C36.9101 214.508 36.4871 214.003 35.9693 213.6C35.4516 213.196 34.8509 212.903 34.2071 212.74C31.7922 212.199 29.9803 213.416 28.2375 215.875L27.2881 217.247C24.1148 221.722 21.3923 223.131 17.69 222.299C13.0948 221.266 11.1786 216.954 12.4402 211.73C13.0477 209.148 14.3743 206.775 16.2768 204.867L21.6741 206.318L21.1103 208.648L16.333 208.366C15.3608 209.406 14.6987 210.681 14.4168 212.055C13.5628 215.586 14.7247 218.265 17.7246 218.939Z" fill="#1D1D1B"/>
<path d="M33.2229 252.771L32.4905 264.049L30.8561 263.949L30.648 260.381C27.3012 260.101 23.8678 259.896 20.3997 259.683L14.1743 259.306C11.2557 259.253 8.35156 258.896 5.51264 258.24C3.81071 257.812 2.32349 256.811 1.31944 255.418C0.315384 254.025 -0.139359 252.331 0.0372972 250.643C0.132696 249.181 0.670243 247.707 2.20923 247.414C2.50332 247.457 2.78544 247.556 3.03869 247.707C3.29194 247.857 3.51112 248.056 3.68312 248.29C3.85512 248.524 3.9764 248.789 4.0397 249.069C4.10299 249.35 4.10701 249.639 4.05151 249.921C3.93092 250.99 3.42631 251.985 2.62523 252.732L1.76686 253.646C2.38099 254.258 3.12494 254.736 3.94793 255.046C4.77092 255.356 5.65355 255.491 6.53557 255.442C8.92858 255.588 13.0124 255.643 30.8949 256.571L31.5886 252.671L33.2229 252.771Z" fill="#1D1D1B"/>
<path d="M8.26639 288.139C8.49617 292.489 11.2056 294.593 18.2677 294.246L30.9134 293.622L31.2255 289.674L32.8599 289.591L33.3497 298.829L31.7154 298.909L31.0998 295.584L17.4136 296.257C8.99474 296.671 5.67397 292.895 5.39665 287.625C5.10189 282.042 8.09748 278.114 15.5584 277.746L19.8675 277.533C23.2966 277.366 26.7258 277.198 30.1549 276.952L30.3847 273.74L32.019 273.66L32.5956 284.551L30.9612 284.631L30.2763 280.728C26.9209 280.816 23.5264 280.984 20.0583 281.155L16.9064 281.31C10.0828 281.644 8.05828 284.212 8.26639 288.139Z" fill="#1D1D1B"/>
<path d="M37.6089 323.458L39.434 332.575L37.8257 332.876L36.6725 329.752L12.2784 334.307L12.014 332.981L30.3518 313.859L11.4114 317.393L11.6628 321.505L10.0588 321.806L8.2207 312.651L9.82908 312.35L10.9433 315.478L32.7103 311.417L33.1134 310.986L32.888 308.243L34.4964 307.941L35.6667 313.772L18.9503 331.057L36.2867 327.824L36.0005 323.755L37.6089 323.458Z" fill="#1D1D1B"/>
<path d="M25.553 369.453C23.2531 367.475 21.5072 364.969 20.4764 362.168C19.8439 360.516 19.5741 358.755 19.6841 356.998C19.7941 355.24 20.2816 353.524 21.1155 351.958C21.9495 350.391 23.1117 349.009 24.5286 347.899C25.9454 346.789 27.5859 345.975 29.346 345.509C31.0452 344.844 32.8692 344.528 34.7021 344.58C36.535 344.632 38.3366 345.051 39.9924 345.811C41.6483 346.571 43.1221 347.655 44.3201 348.994C45.5182 350.333 46.4143 351.898 46.9515 353.59C47.962 356.107 48.2466 358.842 47.7752 361.503L42.3085 363.473L41.5065 361.21L45.5555 359.06C45.8417 357.547 45.7116 355.988 45.1782 354.539C43.3921 349.508 37.9775 347.099 30.7594 349.483C23.5368 351.867 20.6714 356.643 22.6526 362.222C23.1018 363.567 23.8305 364.809 24.7942 365.873L26.0037 365.476C28.271 364.727 30.5643 363.929 32.8186 363.142L31.8129 359.24L33.3258 358.738L36.7246 368.328L35.216 368.83L34.1972 366.681C31.9169 367.391 29.5629 368.128 27.2175 368.906L25.553 369.453Z" fill="#1D1D1B"/>
<path d="M53.3165 375.925L52.0897 372.554L53.5593 371.859L58.5445 381.642L57.0749 382.34L55.059 379.346C51.9421 380.738 48.8641 382.198 45.7817 383.658L43.3063 384.833C40.7616 386.038 37.7529 387.464 34.7444 388.978L38.7414 396.828L44.1951 395.485L45.2702 397.593L38.3599 400.441L29.5898 383.227L31.0551 382.528L33.071 385.523C36.188 384.13 39.2703 382.671 42.3135 381.223L44.1082 380.374C47.2256 378.898 50.3426 377.418 53.3165 375.925Z" fill="#1D1D1B"/>
<path d="M59.0341 407.166C61.9083 405.355 64.7869 403.548 67.6221 401.67L65.9834 398.471L67.3533 397.609L78.2173 413.686L72.4472 417.634L71.203 415.794L74.9746 412.411L69.8504 404.828C66.9589 406.551 64.0499 408.379 61.3058 410.106L64.5095 414.853L67.995 413.306L69.0007 414.791L61.102 419.755L60.1006 418.27L62.9618 415.874L59.7321 411.098C56.3853 413.201 53.5415 414.987 50.8103 416.798L56.3723 425.033L61.1324 423.047L62.3766 424.887L56.2682 428.408L44.9707 411.687L46.3407 410.822L48.7163 413.561C51.5689 411.859 54.4821 410.027 57.391 408.195L59.0341 407.166Z" fill="#1D1D1B"/>
</svg>
