<svg width="302" height="302" viewBox="0 0 302 302" fill="none" xmlns="http://www.w3.org/2000/svg">
<path d="M151 301C233.843 301 301 233.843 301 151C301 68.1573 233.843 1 151 1C68.1573 1 1 68.1573 1 151C1 233.843 68.1573 301 151 301Z" fill="url(#paint0_linear_1476_3559)" stroke="white" stroke-width="2" stroke-miterlimit="10"/>
<path d="M181.566 115.938L150.931 203.53L120.297 115.938L150.931 28.332L181.566 115.938Z" stroke="white" stroke-width="2" stroke-miterlimit="10"/>
<path d="M226.755 164.274L156.289 208.617L183.76 130.021L254.226 85.6914L226.755 164.274Z" stroke="white" stroke-width="2" stroke-miterlimit="10"/>
<path d="M218.832 219.755L161.367 213.361L210.289 182.553L267.741 188.933L218.832 219.755Z" stroke="white" stroke-width="2" stroke-miterlimit="10"/>
<path d="M189.402 245.553L164.094 220.338L199.601 224.276L224.923 249.491L189.402 245.553Z" stroke="white" stroke-width="2" stroke-miterlimit="10"/>
<path d="M75.25 164.274L145.716 208.617L118.232 130.021L47.7656 85.6914L75.25 164.274Z" stroke="white" stroke-width="2" stroke-miterlimit="10"/>
<path d="M83.1172 219.755L140.569 213.361L91.6603 182.553L34.1953 188.933L83.1172 219.755Z" stroke="white" stroke-width="2" stroke-miterlimit="10"/>
<path d="M112.583 245.553L137.905 220.338L102.384 224.276L77.0625 249.491L112.583 245.553Z" stroke="white" stroke-width="2" stroke-miterlimit="10"/>
<path d="M248.33 164.071V244.754L248.299 244.785C235.688 257.867 220.563 268.281 203.84 275.386C187.117 282.492 169.133 286.152 150.963 286.149C132.793 286.146 114.81 282.479 98.0898 275.368C81.3693 268.256 66.2543 257.846 53.6484 244.76V169.234L61.8207 180.332V239.737L64.5262 239.666L67.1664 193.596L72.6673 228.928L76.6511 223.523L80.6845 228.835L83.4799 193.642L88.8377 239.462C88.8452 239.526 88.8759 239.585 88.924 239.627C88.9721 239.67 89.0342 239.694 89.0986 239.694H91.5681V231.633L94.1991 228.835V223.545L96.9755 220.7V177.518L99.6065 169.358L102.38 150.482L105.014 169.454L107.834 177.54V220.772L110.444 223.474V228.882L113.171 231.584V239.673H115.852V226.179L118.483 223.523V188.331L122.609 172.157L126.689 188.377V223.57L129.367 226.226V239.719H132.072V231.49L132.118 201.848L136.174 196.394L140.157 201.848L140.204 239.694H142.86V142.626L142.882 142.524L142.941 142.437C143.294 142.516 143.661 142.505 144.009 142.405C144.356 142.306 144.674 142.121 144.931 141.867C145.189 141.614 145.38 141.3 145.485 140.954C145.59 140.608 145.607 140.241 145.535 139.887C145.585 139.839 145.651 139.812 145.721 139.812H150.496V126.201H151.541V139.775H156.304C156.288 140.199 156.373 140.62 156.554 141.004C156.734 141.388 157.004 141.723 157.34 141.981C157.831 142.306 158.423 142.443 159.006 142.366C159.053 142.416 159.08 142.483 159.08 142.552V239.66H161.786V184.287C161.786 183.878 161.9 183.477 162.116 183.129C162.332 182.782 162.64 182.501 163.006 182.32L172.599 177.565L182.191 182.32C182.557 182.501 182.865 182.782 183.081 183.129C183.297 183.477 183.411 183.878 183.411 184.287V239.694H186.117V177.565L197.005 175.388C197.324 175.324 197.653 175.332 197.968 175.41C198.283 175.489 198.577 175.637 198.828 175.843C199.079 176.049 199.281 176.308 199.42 176.601C199.559 176.895 199.631 177.216 199.631 177.541V239.694H202.337V210.868C202.337 210.578 202.394 210.292 202.505 210.024C202.616 209.757 202.778 209.514 202.983 209.31L203.905 208.388C205.139 207.155 205.001 207.219 206.732 207.219H213.115L218.557 191.033L223.962 207.253H231.313C231.554 207.253 231.791 207.301 232.012 207.395C232.234 207.488 232.434 207.625 232.601 207.797L234.104 209.339C234.512 209.758 234.74 210.32 234.74 210.905V239.66H237.408V172.144L248.33 164.071Z" fill="white"/>
<defs>
<linearGradient id="paint0_linear_1476_3559" x1="151" y1="1" x2="151" y2="301" gradientUnits="userSpaceOnUse">
<stop stop-color="#2B2C6C"/>
<stop offset="0.67039" stop-color="#1A1D39"/>
<stop offset="1" stop-color="#1A2441"/>
</linearGradient>
</defs>
</svg>
