<svg width="302" height="302" viewBox="0 0 302 302" fill="none" xmlns="http://www.w3.org/2000/svg">
<path d="M150.703 300.705C233.546 300.705 300.703 233.548 300.703 150.705C300.703 67.8624 233.546 0.705078 150.703 0.705078C67.8604 0.705078 0.703125 67.8624 0.703125 150.705C0.703125 233.548 67.8604 300.705 150.703 300.705Z" stroke="black" stroke-width="1.41164" stroke-miterlimit="10"/>
<path d="M181.215 115.639L150.58 203.231L119.945 115.639L150.58 28.0332L181.215 115.639Z" stroke="black" stroke-width="1.41164" stroke-miterlimit="10"/>
<path d="M226.482 163.975L156.016 208.318L183.487 129.723L253.953 85.3926L226.482 163.975Z" stroke="black" stroke-width="1.41164" stroke-miterlimit="10"/>
<path d="M218.535 219.462L161.07 213.068L209.992 182.26L267.444 188.64L218.535 219.462Z" stroke="black" stroke-width="1.41164" stroke-miterlimit="10"/>
<path d="M189.105 245.266L163.797 220.051L199.304 223.989L224.626 249.204L189.105 245.266Z" stroke="black" stroke-width="1.41164" stroke-miterlimit="10"/>
<path d="M74.9375 163.975L145.404 208.318L117.919 129.723L47.4531 85.3926L74.9375 163.975Z" stroke="black" stroke-width="1.41164" stroke-miterlimit="10"/>
<path d="M82.8751 219.462L140.327 213.068L91.4181 182.26L33.9531 188.64L82.8751 219.462Z" stroke="black" stroke-width="1.41164" stroke-miterlimit="10"/>
<path d="M112.286 245.266L137.608 220.051L102.088 223.989L76.7656 249.204L112.286 245.266Z" stroke="black" stroke-width="1.41164" stroke-miterlimit="10"/>
<path d="M248.009 163.778V244.461L247.978 244.492C235.368 257.574 220.243 267.988 203.52 275.093C186.797 282.199 168.813 285.859 150.643 285.856C132.473 285.853 114.49 282.186 97.7695 275.075C81.049 267.963 65.934 257.553 53.3281 244.467V168.941L61.5004 180.039V239.444L64.2059 239.373L66.8461 193.303L72.3469 228.635L76.3308 223.23L80.3641 228.542L83.1596 193.349L88.5174 239.169C88.5248 239.233 88.5556 239.292 88.6037 239.335C88.6518 239.377 88.7139 239.401 88.7783 239.401H91.2478V231.34L93.8787 228.542V223.252L96.6552 220.407V177.225L99.2862 169.065L102.06 150.189L104.694 169.161L107.514 177.247V220.479L110.123 223.181V228.589L112.851 231.291V239.38H115.531V225.886L118.162 223.23V188.038L122.289 171.864L126.369 188.084V223.277L129.046 225.933V239.426H131.752V231.197L131.798 201.555L135.853 196.101L139.837 201.555L139.884 239.401H142.54V142.333L142.562 142.231L142.62 142.144C142.973 142.223 143.341 142.212 143.688 142.112C144.036 142.013 144.353 141.828 144.611 141.575C144.869 141.321 145.059 141.007 145.165 140.661C145.27 140.315 145.287 139.948 145.214 139.594C145.265 139.546 145.331 139.519 145.4 139.519H150.175V125.908H151.221V139.482H155.983C155.967 139.906 156.053 140.327 156.233 140.711C156.414 141.095 156.683 141.43 157.02 141.688C157.51 142.013 158.102 142.15 158.686 142.073C158.733 142.123 158.759 142.19 158.76 142.259V239.367H161.466V183.994C161.466 183.585 161.58 183.184 161.796 182.836C162.011 182.489 162.32 182.208 162.686 182.027L172.278 177.272L181.87 182.027C182.237 182.208 182.545 182.489 182.761 182.836C182.976 183.184 183.091 183.585 183.091 183.994V239.401H185.796V177.272L196.685 175.095C197.004 175.031 197.332 175.039 197.647 175.117C197.963 175.196 198.256 175.344 198.508 175.55C198.759 175.756 198.961 176.015 199.1 176.308C199.239 176.602 199.311 176.923 199.311 177.248V239.401H202.016V210.575C202.017 210.285 202.074 209.999 202.184 209.731C202.295 209.464 202.458 209.221 202.663 209.017L203.585 208.095C204.818 206.862 204.681 206.926 206.411 206.926H212.795L218.237 190.74L223.642 206.96H230.993C231.233 206.96 231.471 207.008 231.692 207.102C231.913 207.195 232.114 207.332 232.281 207.504L233.783 209.046C234.192 209.465 234.42 210.027 234.42 210.612V239.367H237.088V171.851L248.009 163.778Z" fill="black"/>
</svg>
